<?xml version="1.0" encoding="utf-8"?>
<!-- Generator: Adobe Illustrator 21.0.0, SVG Export Plug-In . SVG Version: 6.00 Build 0)  -->
<svg version="1.1" xmlns="http://www.w3.org/2000/svg" xmlns:xlink="http://www.w3.org/1999/xlink" x="0px" y="0px"
	 viewBox="0 0 213.2 95.5" style="enable-background:new 0 0 213.2 95.5;" xml:space="preserve">
<style type="text/css">
	.st0{fill:#FFFFFF;}
	.st1{fill:#ED1C24;}
</style>
<g id="Layer_1">
	<path class="st0" d="M156.6,105.3c-3,2.5-6.4,4.7-9.7,6.8l6.4,12.7c4.7-2.5,8.9-5.5,12.7-8.9L156.6,105.3L156.6,105.3z M193,78.7
		c-1.7,5.1-4.2,9.7-6.8,14L174.4,85c2.1-3.4,3.8-6.8,5.1-10.6L193,78.7L193,78.7z M99-26.4c3.8-0.4,7.6-0.8,11.9-0.8l0.8-14
		c-5.1,0-10.6,0.4-15.7,1.3L99-26.4L99-26.4z M131.6,133.3l-3-14c3.8-0.8,7.6-2.1,11-3.8l6.4,12.7
		C141.8,129.9,136.7,131.6,131.6,133.3L131.6,133.3z M197.7,32.9l-14,3c0.4,3.8,0.8,7.6,0.8,11.9l14,0.8
		C198.5,43.5,198.5,38,197.7,32.9L197.7,32.9z M198.1,56.2c-0.4,5.1-1.7,10.2-3,15.2l-13.6-4.2c0.8-3.8,1.7-7.6,2.1-11.9L198.1,56.2
		L198.1,56.2z M170.2,91.4c-2.5,3.4-5.1,6.4-7.6,8.9l9.3,10.6c3.8-3.8,7.2-7.6,10.2-11.9L170.2,91.4L170.2,91.4z M154.1-12.8
		l7.6-11.9c4.2,3,8,6.4,11.9,10.2L163-5.2C160.4-7.7,157.5-10.3,154.1-12.8L154.1-12.8z M168.1,0.7c2.5,3,4.7,6.4,6.8,9.7l12.7-6.4
		c-2.5-4.7-5.5-8.9-8.9-12.7L168.1,0.7L168.1,0.7z M141.8-35.7c5.1,1.7,9.7,4.2,14,6.8L148.2-17c-3.4-2.1-6.8-3.8-10.6-5.1
		L141.8-35.7L141.8-35.7z M118.1-26.8c3.8,0.4,8,1.3,11.9,2.1l4.2-13.6c-5.1-1.3-10.2-2.5-15.2-3L118.1-26.8L118.1-26.8z M196,25.7
		l-14,3c-0.8-3.8-2.1-7.6-3.8-11l12.7-6.4C193,15.6,194.7,20.6,196,25.7L196,25.7z M121.5,120.6c-3.8,0.4-7.6,0.8-11.9,0.8l-0.8,14
		c0.4,0,0.8,0,1.3,0c4.7,0,9.3-0.4,14-1.3L121.5,120.6L121.5,120.6z M182.9,134.6c-5.5,4.7-11.9,8.9-18.2,12.3l-8.5-16.5
		c5.1-3,9.7-5.9,14.4-9.7L182.9,134.6L182.9,134.6z M157.9,150.6l-8.5-16.5c-5.1,2.5-10.6,4.2-16.5,5.5l3.8,18.2
		C143.9,156.2,151.1,153.6,157.9,150.6L157.9,150.6z M217.2,86.7c-2.5,7.2-5.9,13.6-9.7,19.9l-15.7-10.2c3-5.1,5.5-10.2,7.6-15.7
		L217.2,86.7L217.2,86.7z M222.3,27.8L204,31.7c0.8,5.5,1.3,11.4,1.3,17.4l18.6,1.3C224.4,42.7,223.5,35,222.3,27.8L222.3,27.8z
		 M223.5,57.5c-0.8,7.6-2.1,14.8-4.2,21.6l-17.8-5.9c1.7-5.5,2.5-11,3.4-16.9L223.5,57.5L223.5,57.5z M119.4-47.5
		c5.9,0.4,11.4,1.7,16.9,3.4l5.9-17.8c-7.2-2.1-14.4-3.4-21.6-4.2L119.4-47.5L119.4-47.5z M203.2,113c-4.2,5.9-9.3,11.9-14.4,16.9
		l-12.3-14c4.2-4.2,8-8.5,11.4-13.1L203.2,113L203.2,113z M178.6-18.7l14-12.3c-5.1-5.5-10.6-10.2-16.9-14.4l-10.2,15.7
		C170.2-26.8,174.8-23,178.6-18.7L178.6-18.7z M149.4-59.8c7.2,2.5,13.6,5.9,19.9,9.7l-10.2,15.7c-5.1-3-10.2-5.5-15.7-7.6
		L149.4-59.8L149.4-59.8z M213.8-0.5l-16.9,8.5c2.5,5.1,4.2,10.6,5.5,16.5l18.2-3.8C219.3,13,216.8,6.3,213.8-0.5L213.8-0.5z
		 M91-65.3c7.2-1.3,14.8-1.7,22-1.7l-1.3,18.6c-0.4,0-1.3,0-2.1,0c-5.1,0-10.2,0.4-15.2,1.3L91-65.3L91-65.3z M183.7-13.2
		c3.8,4.7,6.8,9.3,9.7,14.4l16.9-8.5c-3.4-6.4-7.6-12.7-12.3-18.2L183.7-13.2L183.7-13.2z M129.5,159.5c-6.4,1.3-12.7,1.7-19.1,1.7
		c-0.8,0-2.1,0-3,0l1.3-18.6c5.9,0,11.4-0.4,17.4-1.3L129.5,159.5L129.5,159.5z M210,117.6c-4.7,6.8-10.2,12.7-16.1,18.2l11.4,13.1
		c7.2-6.8,13.6-14,19.1-21.6L210,117.6L210,117.6z M216.8-42.4c6.4,7.6,11.9,15.2,16.1,23.7l-15.7,7.6c-3.8-7.2-8.5-14-13.6-19.9
		L216.8-42.4L216.8-42.4z M231.6,58.3c-0.8,8-2.1,16.1-4.7,23.7l16.5,5.5c2.5-9.3,4.7-18.6,5.5-28.4L231.6,58.3L231.6,58.3z
		 M249.4,51.6L232,50.7c0.4-8-0.4-16.5-1.7-24.1l16.9-3.4C248.9,32.1,249.8,41.8,249.4,51.6L249.4,51.6z M89.3-72.9
		c6.8-1.3,13.6-1.7,20.7-1.7c1.3,0,2.1,0,3.4,0l0.8-17.4c-9.7-0.4-19.5,0.4-28.8,2.1L89.3-72.9L89.3-72.9z M134.6,184.5
		c-8,1.3-16.1,2.1-24.1,2.1c-1.7,0-3,0-4.7,0l0.8-17.4c8,0.4,16.5-0.4,24.1-1.7L134.6,184.5L134.6,184.5z M152-67.4
		c7.6,3,14.8,6.4,22,10.6l9.7-14.4c-8-5.1-16.9-9.3-25.8-12.7L152-67.4L152-67.4z M246,15.1L229,18.5c-1.7-8-4.7-15.7-8-22.9
		l15.7-7.6C240.5-3.1,243.9,5.8,246,15.1L246,15.1z M188.4,140.9c-6.4,5.1-13.1,9.7-19.9,13.6l7.6,15.7c8.5-4.7,16.5-10.2,23.7-16.1
		L188.4,140.9L188.4,140.9z M141.8,182.8l-3.4-16.9c8-1.7,15.7-4.7,22.9-8l7.6,15.7C160.4,177.7,151.5,180.7,141.8,182.8
		L141.8,182.8z M121.1-74.2c8,0.8,16.1,2.1,23.7,4.7l5.5-16.5c-9.3-2.5-18.6-4.7-28.4-5.5L121.1-74.2L121.1-74.2z M250.6,144.3
		c-7.2,10.2-15.2,19.5-24.1,27.9l-14.4-16.1c7.6-7.2,14.4-15.2,20.7-23.7L250.6,144.3L250.6,144.3z M264.2-25.9l-19.1,9.7
		c4.7,9.3,8,19.5,10.2,29.6l21.2-4.2C273.5-3.1,269.7-14.9,264.2-25.9L264.2-25.9z M207-93.3c10.2,7.2,19.5,15.2,27.9,24.1
		l-16.1,14.4c-7.2-7.6-15.2-14.4-23.7-20.7L207-93.3L207-93.3z M278.2,16.4L257,20.6c1.7,10.2,2.5,20.7,2.1,31.3l21.6,1.3
		C281.1,41,280.3,28.3,278.2,16.4L278.2,16.4z M141,215c-10.2,1.7-20.3,3-30.5,3c-2.1,0-4.2,0-6.4,0l1.3-21.6c1.7,0,3.4,0,5.1,0
		c8.9,0,17.8-0.8,26.3-2.5L141,215L141,215z M122.7-101.3c10.6,0.8,21.2,3,30.9,5.9l6.8-20.3c-11.4-3.4-23.7-5.9-36.4-6.8
		L122.7-101.3L122.7-101.3z M220.6,177.3c-9.3,8-19.5,14.8-30.5,20.7l-9.7-19.1c9.3-5.1,17.8-11,25.8-17.8L220.6,177.3L220.6,177.3z
		"/>
</g>
<g id="Layer_2">
	<g>
		<path class="st0" d="M24.4,27.9h-15v38.4H15V56.2H24c8,0.3,14-5.9,14-14C38,34.6,32.1,28.3,24.4,27.9z M24.4,51.7h-9.1V32.8h9.1
			c4.5,0,8,4.2,8,9.4S28.9,51.7,24.4,51.7z"/>
		<path class="st0" d="M59.6,28.3h-15v38.4h15c10.1,0,18.5-8.7,18.5-19.2C78.1,37,69.8,28.3,59.6,28.3z M68.7,58
			c-2.4,2.4-5.9,3.8-9.1,3.8h-9.1v-29h9.1c3.5,0,6.6,1.4,9.1,4.2c2.4,2.8,3.8,6.3,3.8,10.5C72.6,51.3,71.2,55.2,68.7,58z"/>
		<polygon class="st0" points="111.3,32.8 111.3,28.3 85.5,28.3 85.5,66.7 91.1,66.7 91.1,49.6 107.5,49.6 107.5,44.7 91.1,44.7 
			91.1,32.8 111.3,32.8 		"/>
	</g>
	<g>
		<path class="st1" d="M133,41.4c-0.2,0.2-0.2,0.3-0.3,0.5c-1.1,1.2-2.6,2-4.3,2c-1.5,0-3.1-0.8-4.3-2c-1.2-1.4-1.8-3.1-1.8-4.9
			c0-1.8,0.6-3.5,1.8-4.9c1.1-1.2,2.6-2,4.3-2c1.5,0,3.1,0.8,4.3,2c0.2,0.2,0.3,0.3,0.3,0.5l1.7-1.7c-1.5-1.7-3.8-2.7-6.3-2.7
			c-4.7,0-8.6,4-8.6,8.9s3.8,8.9,8.6,8.9c2.4,0,4.7-1.1,6.3-2.7L133,41.4L133,41.4z"/>
		<polygon class="st1" points="140,43.2 140,37.6 147.2,37.6 147.2,35.4 140,35.4 140,30.4 148.7,30.4 148.7,28.6 137.6,28.6 
			137.6,45.4 149.2,45.4 149.2,43.2 140,43.2 		"/>
		<polygon class="st1" points="154.5,43.2 154.5,37.6 161.7,37.6 161.7,35.4 154.5,35.4 154.5,30.4 163.3,30.4 163.3,28.6 
			152.1,28.6 152.1,45.4 163.7,45.4 163.7,43.2 154.5,43.2 		"/>
		<path class="st1" d="M128.2,60.4c0.6-0.7,0.9-1.4,1.2-2c0.3-0.7,0.4-1.6,0.4-2.3c0-0.4,0-2-1-3.3c-1.3-1.6-3.2-1.7-3.6-1.7
			c-1,0-2,0.3-3,0.9c-1.6,1.2-2.2,2.7-2.3,3.5l2.2,0.4c0.1-0.4,0.4-1.4,1.4-2c0.1-0.1,0.9-0.6,1.7-0.6c0.1,0,1.3,0.1,2,1
			c0.6,0.7,0.6,1.6,0.6,1.9c0,1-0.4,2-1.2,3c-0.7,1-1.9,2-3.3,3.5c-1,1-2.3,2-3.5,2.9v1.9h9.7v-2h-6.2c0.4-0.4,0.9-0.7,1.4-1.2
			C125.9,63,127.2,61.7,128.2,60.4L128.2,60.4z"/>
		<path class="st1" d="M137.7,50.9c-3,0-5.3,2.4-5.5,5.6v5.6c0,3,2.4,5.6,5.5,5.6c3,0,5.3-2.4,5.5-5.6v-5.6
			C143.2,53.5,140.8,50.9,137.7,50.9z M141.1,62.1c0,1.9-1.4,3.5-3.3,3.5c-1.9,0-3.3-1.6-3.3-3.5v-5.3c0-1.9,1.4-3.5,3.3-3.5
			c1.9,0,3.3,1.6,3.3,3.5V62.1z"/>
		<polygon class="st1" points="145.1,51.4 145.1,53.5 147.4,53.5 147.4,67.3 149.7,67.3 149.7,51.4 145.1,51.4 		"/>
		<polygon class="st1" points="152.2,51.4 152.2,53.5 159.9,53.5 152.2,67.4 154.7,67.4 163.5,51.6 152.2,51.6 		"/>
	</g>
</g>
</svg>
