<?xml version="1.0" encoding="utf-8"?>
<!-- Generator: Adobe Illustrator 21.0.0, SVG Export Plug-In . SVG Version: 6.00 Build 0)  -->
<svg version="1.1" xmlns="http://www.w3.org/2000/svg" xmlns:xlink="http://www.w3.org/1999/xlink" x="0px" y="0px"
	 viewBox="0 0 213.2 95.5" style="enable-background:new 0 0 213.2 95.5;" xml:space="preserve">
<style type="text/css">
	.st0{fill:#FFFFFF;}
	.st1{fill:#ED1C24;}
</style>
<g id="Layer_1">
	<path class="st0" d="M182.5,74.9c-1.5,1.3-3.1,2.3-4.8,3.3l3.1,6.3c2.3-1.3,4.4-2.7,6.3-4.4L182.5,74.9L182.5,74.9z M200.5,61.7
		c-0.8,2.5-2.1,4.8-3.3,6.9l-5.9-3.8c1-1.7,1.9-3.3,2.5-5.2L200.5,61.7L200.5,61.7z M154.1,9.8c1.9-0.2,3.8-0.4,5.9-0.4l0.4-6.9
		c-2.5,0-5.2,0.2-7.7,0.6L154.1,9.8L154.1,9.8z M170.2,88.7l-1.5-6.9c1.9-0.4,3.8-1,5.4-1.9l3.1,6.3C175.2,87,172.7,87.9,170.2,88.7
		L170.2,88.7z M202.8,39.1l-6.9,1.5c0.2,1.9,0.4,3.8,0.4,5.9l6.9,0.4C203.3,44.3,203.3,41.6,202.8,39.1L202.8,39.1z M203.1,50.6
		c-0.2,2.5-0.8,5-1.5,7.5l-6.7-2.1c0.4-1.9,0.8-3.8,1-5.9L203.1,50.6L203.1,50.6z M189.2,68c-1.3,1.7-2.5,3.1-3.8,4.4l4.6,5.2
		c1.9-1.9,3.6-3.8,5-5.9L189.2,68L189.2,68z M181.3,16.5l3.8-5.9c2.1,1.5,4,3.1,5.9,5l-5.2,4.6C184.4,19,183,17.8,181.3,16.5
		L181.3,16.5z M188.2,23.2c1.3,1.5,2.3,3.1,3.3,4.8l6.3-3.1c-1.3-2.3-2.7-4.4-4.4-6.3L188.2,23.2L188.2,23.2z M175.2,5.2
		c2.5,0.8,4.8,2.1,6.9,3.3l-3.8,5.9c-1.7-1-3.3-1.9-5.2-2.5L175.2,5.2L175.2,5.2z M163.5,9.6c1.9,0.2,4,0.6,5.9,1l2.1-6.7
		c-2.5-0.6-5-1.3-7.5-1.5L163.5,9.6L163.5,9.6z M202,35.5l-6.9,1.5c-0.4-1.9-1-3.8-1.9-5.4l6.3-3.1C200.5,30.5,201.4,33,202,35.5
		L202,35.5z M165.2,82.4c-1.9,0.2-3.8,0.4-5.9,0.4l-0.4,6.9c0.2,0,0.4,0,0.6,0c2.3,0,4.6-0.2,6.9-0.6L165.2,82.4L165.2,82.4z
		 M195.5,89.3c-2.7,2.3-5.9,4.4-9,6.1l-4.2-8.2c2.5-1.5,4.8-2.9,7.1-4.8L195.5,89.3L195.5,89.3z M183.2,97.3l-4.2-8.2
		c-2.5,1.3-5.2,2.1-8.2,2.7l1.9,9C176.3,100,179.8,98.7,183.2,97.3L183.2,97.3z M212.5,65.7c-1.3,3.6-2.9,6.7-4.8,9.8l-7.7-5
		c1.5-2.5,2.7-5,3.8-7.7L212.5,65.7L212.5,65.7z M215,36.6l-9,1.9c0.4,2.7,0.6,5.6,0.6,8.6l9.2,0.6C216,43.9,215.6,40.1,215,36.6
		L215,36.6z M215.6,51.2c-0.4,3.8-1,7.3-2.1,10.7l-8.8-2.9c0.8-2.7,1.3-5.4,1.7-8.4L215.6,51.2L215.6,51.2z M164.1-0.7
		c2.9,0.2,5.6,0.8,8.4,1.7l2.9-8.8c-3.6-1-7.1-1.7-10.7-2.1L164.1-0.7L164.1-0.7z M205.6,78.6c-2.1,2.9-4.6,5.9-7.1,8.4l-6.1-6.9
		c2.1-2.1,4-4.2,5.6-6.5L205.6,78.6L205.6,78.6z M193.4,13.6l6.9-6.1c-2.5-2.7-5.2-5-8.4-7.1l-5,7.7
		C189.2,9.6,191.5,11.5,193.4,13.6L193.4,13.6z M179-6.7c3.6,1.3,6.7,2.9,9.8,4.8l-5,7.7c-2.5-1.5-5-2.7-7.7-3.8L179-6.7L179-6.7z
		 M210.8,22.6l-8.4,4.2c1.3,2.5,2.1,5.2,2.7,8.2l9-1.9C213.5,29.3,212.3,25.9,210.8,22.6L210.8,22.6z M150.1-9.4
		c3.6-0.6,7.3-0.8,10.9-0.8l-0.6,9.2c-0.2,0-0.6,0-1,0c-2.5,0-5,0.2-7.5,0.6L150.1-9.4L150.1-9.4z M195.9,16.3
		c1.9,2.3,3.3,4.6,4.8,7.1l8.4-4.2c-1.7-3.1-3.8-6.3-6.1-9L195.9,16.3L195.9,16.3z M169.2,101.7c-3.1,0.6-6.3,0.8-9.4,0.8
		c-0.4,0-1,0-1.5,0l0.6-9.2c2.9,0,5.6-0.2,8.6-0.6L169.2,101.7L169.2,101.7z M208.9,80.9c-2.3,3.3-5,6.3-8,9l5.6,6.5
		c3.6-3.3,6.7-6.9,9.4-10.7L208.9,80.9L208.9,80.9z M212.3,1.9c3.1,3.8,5.9,7.5,8,11.7l-7.7,3.8c-1.9-3.6-4.2-6.9-6.7-9.8L212.3,1.9
		L212.3,1.9z M219.6,51.7c-0.4,4-1,8-2.3,11.7l8.2,2.7c1.3-4.6,2.3-9.2,2.7-14L219.6,51.7L219.6,51.7z M228.4,48.3l-8.6-0.4
		c0.2-4-0.2-8.2-0.8-11.9l8.4-1.7C228.2,38.7,228.6,43.5,228.4,48.3L228.4,48.3z M149.3-13.2c3.3-0.6,6.7-0.8,10.3-0.8
		c0.6,0,1,0,1.7,0l0.4-8.6c-4.8-0.2-9.6,0.2-14.2,1L149.3-13.2L149.3-13.2z M171.7,114c-4,0.6-8,1-11.9,1c-0.8,0-1.5,0-2.3,0
		l0.4-8.6c4,0.2,8.2-0.2,11.9-0.8L171.7,114L171.7,114z M180.2-10.5c3.8,1.5,7.3,3.1,10.9,5.2l4.8-7.1c-4-2.5-8.4-4.6-12.8-6.3
		L180.2-10.5L180.2-10.5z M226.7,30.3l-8.4,1.7c-0.8-4-2.3-7.7-4-11.3l7.7-3.8C224,21.3,225.6,25.7,226.7,30.3L226.7,30.3z
		 M198.2,92.5c-3.1,2.5-6.5,4.8-9.8,6.7l3.8,7.7c4.2-2.3,8.2-5,11.7-8L198.2,92.5L198.2,92.5z M175.2,113.2l-1.7-8.4
		c4-0.8,7.7-2.3,11.3-4l3.8,7.7C184.4,110.7,180,112.1,175.2,113.2L175.2,113.2z M165-13.8c4,0.4,8,1,11.7,2.3l2.7-8.2
		c-4.6-1.3-9.2-2.3-14-2.7L165-13.8L165-13.8z M229,94.1c-3.6,5-7.5,9.6-11.9,13.8l-7.1-8c3.8-3.6,7.1-7.5,10.3-11.7L229,94.1
		L229,94.1z M235.7,10l-9.4,4.8c2.3,4.6,4,9.6,5,14.6l10.5-2.1C240.3,21.3,238.4,15.5,235.7,10L235.7,10z M207.4-23.3
		c5,3.6,9.6,7.5,13.8,11.9l-8,7.1c-3.6-3.8-7.5-7.1-11.7-10.3L207.4-23.3L207.4-23.3z M242.6,30.9L232.1,33c0.8,5,1.3,10.3,1,15.5
		l10.7,0.6C244.1,43.1,243.6,36.8,242.6,30.9L242.6,30.9z M174.8,129.1c-5,0.8-10,1.5-15.1,1.5c-1,0-2.1,0-3.1,0l0.6-10.7
		c0.8,0,1.7,0,2.5,0c4.4,0,8.8-0.4,13-1.3L174.8,129.1L174.8,129.1z M165.8-27.2c5.2,0.4,10.5,1.5,15.3,2.9l3.3-10
		c-5.6-1.7-11.7-2.9-18-3.3L165.8-27.2L165.8-27.2z M214.1,110.4c-4.6,4-9.6,7.3-15.1,10.3l-4.8-9.4c4.6-2.5,8.8-5.4,12.8-8.8
		L214.1,110.4L214.1,110.4z"/>
</g>
<g id="Layer_2">
	<g>
		<path class="st0" d="M24.4,27.9h-15v38.4H15V56.2H24c8,0.3,14-5.9,14-14C38,34.6,32.1,28.3,24.4,27.9z M24.4,51.7h-9.1V32.8h9.1
			c4.5,0,8,4.2,8,9.4S28.9,51.7,24.4,51.7z"/>
		<path class="st0" d="M59.6,28.3h-15v38.4h15c10.1,0,18.5-8.7,18.5-19.2C78.1,37,69.8,28.3,59.6,28.3z M68.7,58
			c-2.4,2.4-5.9,3.8-9.1,3.8h-9.1v-29h9.1c3.5,0,6.6,1.4,9.1,4.2c2.4,2.8,3.8,6.3,3.8,10.5C72.6,51.3,71.2,55.2,68.7,58z"/>
		<polygon class="st0" points="111.3,32.8 111.3,28.3 85.5,28.3 85.5,66.7 91.1,66.7 91.1,49.6 107.5,49.6 107.5,44.7 91.1,44.7 
			91.1,32.8 111.3,32.8 		"/>
	</g>
	<g>
		<path class="st1" d="M133,41.4c-0.2,0.2-0.2,0.3-0.3,0.5c-1.1,1.2-2.6,2-4.3,2c-1.5,0-3.1-0.8-4.3-2c-1.2-1.4-1.8-3.1-1.8-4.9
			c0-1.8,0.6-3.5,1.8-4.9c1.1-1.2,2.6-2,4.3-2c1.5,0,3.1,0.8,4.3,2c0.2,0.2,0.3,0.3,0.3,0.5l1.7-1.7c-1.5-1.7-3.8-2.7-6.3-2.7
			c-4.7,0-8.6,4-8.6,8.9s3.8,8.9,8.6,8.9c2.4,0,4.7-1.1,6.3-2.7L133,41.4L133,41.4z"/>
		<polygon class="st1" points="140,43.2 140,37.6 147.2,37.6 147.2,35.4 140,35.4 140,30.4 148.7,30.4 148.7,28.6 137.6,28.6 
			137.6,45.4 149.2,45.4 149.2,43.2 140,43.2 		"/>
		<polygon class="st1" points="154.5,43.2 154.5,37.6 161.7,37.6 161.7,35.4 154.5,35.4 154.5,30.4 163.3,30.4 163.3,28.6 
			152.1,28.6 152.1,45.4 163.7,45.4 163.7,43.2 154.5,43.2 		"/>
		<path class="st1" d="M128.2,60.4c0.6-0.7,0.9-1.4,1.2-2c0.3-0.7,0.4-1.6,0.4-2.3c0-0.4,0-2-1-3.3c-1.3-1.6-3.2-1.7-3.6-1.7
			c-1,0-2,0.3-3,0.9c-1.6,1.2-2.2,2.7-2.3,3.5l2.2,0.4c0.1-0.4,0.4-1.4,1.4-2c0.1-0.1,0.9-0.6,1.7-0.6c0.1,0,1.3,0.1,2,1
			c0.6,0.7,0.6,1.6,0.6,1.9c0,1-0.4,2-1.2,3c-0.7,1-1.9,2-3.3,3.5c-1,1-2.3,2-3.5,2.9v1.9h9.7v-2h-6.2c0.4-0.4,0.9-0.7,1.4-1.2
			C125.9,63,127.2,61.7,128.2,60.4L128.2,60.4z"/>
		<path class="st1" d="M137.7,50.9c-3,0-5.3,2.4-5.5,5.6v5.6c0,3,2.4,5.6,5.5,5.6c3,0,5.3-2.4,5.5-5.6v-5.6
			C143.2,53.5,140.8,50.9,137.7,50.9z M141.1,62.1c0,1.9-1.4,3.5-3.3,3.5c-1.9,0-3.3-1.6-3.3-3.5v-5.3c0-1.9,1.4-3.5,3.3-3.5
			c1.9,0,3.3,1.6,3.3,3.5V62.1z"/>
		<polygon class="st1" points="145.1,51.4 145.1,53.5 147.4,53.5 147.4,67.3 149.7,67.3 149.7,51.4 145.1,51.4 		"/>
		<polygon class="st1" points="152.2,51.4 152.2,53.5 159.9,53.5 152.2,67.4 154.7,67.4 163.5,51.6 152.2,51.6 		"/>
	</g>
</g>
</svg>
