<?xml version="1.0" encoding="utf-8"?>
<!-- Generator: Adobe Illustrator 20.1.0, SVG Export Plug-In . SVG Version: 6.00 Build 0)  -->
<svg version="1.1" id="Layer_1" xmlns="http://www.w3.org/2000/svg" xmlns:xlink="http://www.w3.org/1999/xlink" x="0px" y="0px"
	 viewBox="0 0 240.9 95.1" style="enable-background:new 0 0 240.9 95.1;" xml:space="preserve">
<style type="text/css">
	.st0{fill:#FFFFFF;}
	.st1{fill:#EC2227;}
</style>
<g id="Layer_1_1_">
	<path class="st0" d="M176.5,75.9c-1.5,1.3-3.1,2.3-4.8,3.3l3.1,6.3c2.3-1.3,4.4-2.7,6.3-4.4L176.5,75.9L176.5,75.9z M194.5,62.7
		c-0.8,2.5-2.1,4.8-3.3,6.9l-5.9-3.8c1-1.7,1.9-3.3,2.5-5.2L194.5,62.7L194.5,62.7z M148.1,10.8c1.9-0.2,3.8-0.4,5.9-0.4l0.4-6.9
		c-2.5,0-5.2,0.2-7.7,0.6L148.1,10.8L148.1,10.8z M164.2,89.7l-1.5-6.9c1.9-0.4,3.8-1,5.4-1.9l3.1,6.3
		C169.2,88,166.7,88.9,164.2,89.7L164.2,89.7z M196.8,40.1l-6.9,1.5c0.2,1.9,0.4,3.8,0.4,5.9l6.9,0.4
		C197.3,45.3,197.3,42.6,196.8,40.1L196.8,40.1z M197.1,51.6c-0.2,2.5-0.8,5-1.5,7.5l-6.7-2.1c0.4-1.9,0.8-3.8,1-5.9L197.1,51.6
		L197.1,51.6z M183.2,69c-1.3,1.7-2.5,3.1-3.8,4.4l4.6,5.2c1.9-1.9,3.6-3.8,5-5.9L183.2,69L183.2,69z M175.3,17.5l3.8-5.9
		c2.1,1.5,4,3.1,5.9,5l-5.2,4.6C178.4,20,177,18.8,175.3,17.5L175.3,17.5z M182.2,24.2c1.3,1.5,2.3,3.1,3.3,4.8l6.3-3.1
		c-1.3-2.3-2.7-4.4-4.4-6.3L182.2,24.2L182.2,24.2z M169.2,6.2c2.5,0.8,4.8,2.1,6.9,3.3l-3.8,5.9c-1.7-1-3.3-1.9-5.2-2.5L169.2,6.2
		L169.2,6.2z M157.5,10.6c1.9,0.2,4,0.6,5.9,1l2.1-6.7c-2.5-0.6-5-1.3-7.5-1.5L157.5,10.6L157.5,10.6z M196,36.5l-6.9,1.5
		c-0.4-1.9-1-3.8-1.9-5.4l6.3-3.1C194.5,31.5,195.4,34,196,36.5L196,36.5z M159.2,83.4c-1.9,0.2-3.8,0.4-5.9,0.4l-0.4,6.9
		c0.2,0,0.4,0,0.6,0c2.3,0,4.6-0.2,6.9-0.6L159.2,83.4L159.2,83.4z M189.5,90.3c-2.7,2.3-5.9,4.4-9,6.1l-4.2-8.2
		c2.5-1.5,4.8-2.9,7.1-4.8L189.5,90.3L189.5,90.3z M177.2,98.3l-4.2-8.2c-2.5,1.3-5.2,2.1-8.2,2.7l1.9,9
		C170.3,101,173.8,99.7,177.2,98.3L177.2,98.3z M206.5,66.7c-1.3,3.6-2.9,6.7-4.8,9.8l-7.7-5c1.5-2.5,2.7-5,3.8-7.7L206.5,66.7
		L206.5,66.7z M209,37.6l-9,1.9c0.4,2.7,0.6,5.6,0.6,8.6l9.2,0.6C210,44.9,209.6,41.1,209,37.6L209,37.6z M209.6,52.2
		c-0.4,3.8-1,7.3-2.1,10.7l-8.8-2.9c0.8-2.7,1.3-5.4,1.7-8.4L209.6,52.2L209.6,52.2z M158.1,0.3c2.9,0.2,5.6,0.8,8.4,1.7l2.9-8.8
		c-3.6-1-7.1-1.7-10.7-2.1L158.1,0.3L158.1,0.3z M199.6,79.6c-2.1,2.9-4.6,5.9-7.1,8.4l-6.1-6.9c2.1-2.1,4-4.2,5.6-6.5L199.6,79.6
		L199.6,79.6z M187.4,14.6l6.9-6.1c-2.5-2.7-5.2-5-8.4-7.1l-5,7.7C183.2,10.6,185.5,12.5,187.4,14.6L187.4,14.6z M173-5.7
		c3.6,1.3,6.7,2.9,9.8,4.8l-5,7.7c-2.5-1.5-5-2.7-7.7-3.8L173-5.7L173-5.7z M204.8,23.6l-8.4,4.2c1.3,2.5,2.1,5.2,2.7,8.2l9-1.9
		C207.5,30.3,206.3,26.9,204.8,23.6L204.8,23.6z M144.1-8.4c3.6-0.6,7.3-0.8,10.9-0.8L154.4,0c-0.2,0-0.6,0-1,0
		c-2.5,0-5,0.2-7.5,0.6L144.1-8.4L144.1-8.4z M189.9,17.3c1.9,2.3,3.3,4.6,4.8,7.1l8.4-4.2c-1.7-3.1-3.8-6.3-6.1-9L189.9,17.3
		L189.9,17.3z M163.2,102.7c-3.1,0.6-6.3,0.8-9.4,0.8c-0.4,0-1,0-1.5,0l0.6-9.2c2.9,0,5.6-0.2,8.6-0.6L163.2,102.7L163.2,102.7z
		 M202.9,81.9c-2.3,3.3-5,6.3-8,9l5.6,6.5c3.6-3.3,6.7-6.9,9.4-10.7L202.9,81.9L202.9,81.9z M206.3,2.9c3.1,3.8,5.9,7.5,8,11.7
		l-7.7,3.8c-1.9-3.6-4.2-6.9-6.7-9.8L206.3,2.9L206.3,2.9z M213.6,52.7c-0.4,4-1,8-2.3,11.7l8.2,2.7c1.3-4.6,2.3-9.2,2.7-14
		L213.6,52.7L213.6,52.7z M222.4,49.3l-8.6-0.4c0.2-4-0.2-8.2-0.8-11.9l8.4-1.7C222.2,39.7,222.6,44.5,222.4,49.3L222.4,49.3z
		 M143.3-12.2c3.3-0.6,6.7-0.8,10.3-0.8c0.6,0,1,0,1.7,0l0.4-8.6c-4.8-0.2-9.6,0.2-14.2,1L143.3-12.2L143.3-12.2z M165.7,115
		c-4,0.6-8,1-11.9,1c-0.8,0-1.5,0-2.3,0l0.4-8.6c4,0.2,8.2-0.2,11.9-0.8L165.7,115L165.7,115z M174.2-9.5c3.8,1.5,7.3,3.1,10.9,5.2
		l4.8-7.1c-4-2.5-8.4-4.6-12.8-6.3L174.2-9.5L174.2-9.5z M220.7,31.3l-8.4,1.7c-0.8-4-2.3-7.7-4-11.3l7.7-3.8
		C218,22.3,219.6,26.7,220.7,31.3L220.7,31.3z M192.2,93.5c-3.1,2.5-6.5,4.8-9.8,6.7l3.8,7.7c4.2-2.3,8.2-5,11.7-8L192.2,93.5
		L192.2,93.5z M169.2,114.2l-1.7-8.4c4-0.8,7.7-2.3,11.3-4l3.8,7.7C178.4,111.7,174,113.1,169.2,114.2L169.2,114.2z M159-12.8
		c4,0.4,8,1,11.7,2.3l2.7-8.2c-4.6-1.3-9.2-2.3-14-2.7L159-12.8L159-12.8z M223,95.1c-3.6,5-7.5,9.6-11.9,13.8l-7.1-8
		c3.8-3.6,7.1-7.5,10.3-11.7L223,95.1L223,95.1z M229.7,11l-9.4,4.8c2.3,4.6,4,9.6,5,14.6l10.5-2.1C234.3,22.3,232.4,16.5,229.7,11
		L229.7,11z M201.4-22.3c5,3.6,9.6,7.5,13.8,11.9l-8,7.1c-3.6-3.8-7.5-7.1-11.7-10.3L201.4-22.3L201.4-22.3z M236.6,31.9L226.1,34
		c0.8,5,1.3,10.3,1,15.5l10.7,0.6C238.1,44.1,237.6,37.8,236.6,31.9L236.6,31.9z M168.8,130.1c-5,0.8-10,1.5-15.1,1.5
		c-1,0-2.1,0-3.1,0l0.6-10.7c0.8,0,1.7,0,2.5,0c4.4,0,8.8-0.4,13-1.3L168.8,130.1L168.8,130.1z M159.8-26.2
		c5.2,0.4,10.5,1.5,15.3,2.9l3.3-10c-5.6-1.7-11.7-2.9-18-3.3L159.8-26.2L159.8-26.2z M208.1,111.4c-4.6,4-9.6,7.3-15.1,10.3
		l-4.8-9.4c4.6-2.5,8.8-5.4,12.8-8.8L208.1,111.4L208.1,111.4z"/>
</g>
<g id="Layer_2">
	<g>
		<path class="st0" d="M18.4,28.9h-15v38.4H9V57.2h9c8,0.3,14-5.9,14-14C32,35.6,26.1,29.3,18.4,28.9z M18.4,52.7H9.3V33.8h9.1
			c4.5,0,8,4.2,8,9.4S22.9,52.7,18.4,52.7z"/>
		<path class="st0" d="M53.6,29.3h-15v38.4h15c10.1,0,18.5-8.7,18.5-19.2S63.8,29.3,53.6,29.3z M62.7,59c-2.4,2.4-5.9,3.8-9.1,3.8
			h-9.1v-29h9.1c3.5,0,6.6,1.4,9.1,4.2c2.4,2.8,3.8,6.3,3.8,10.5C66.6,52.3,65.2,56.2,62.7,59z"/>
		<polygon class="st0" points="105.3,33.8 105.3,29.3 79.5,29.3 79.5,67.7 85.1,67.7 85.1,50.6 101.5,50.6 101.5,45.7 85.1,45.7 
			85.1,33.8 		"/>
	</g>
	<g>
		<path class="st1" d="M127,42.4c-0.2,0.2-0.2,0.3-0.3,0.5c-1.1,1.2-2.6,2-4.3,2c-1.5,0-3.1-0.8-4.3-2c-1.2-1.4-1.8-3.1-1.8-4.9
			c0-1.8,0.6-3.5,1.8-4.9c1.1-1.2,2.6-2,4.3-2c1.5,0,3.1,0.8,4.3,2c0.2,0.2,0.3,0.3,0.3,0.5l1.7-1.7c-1.5-1.7-3.8-2.7-6.3-2.7
			c-4.7,0-8.6,4-8.6,8.9s3.8,8.9,8.6,8.9c2.4,0,4.7-1.1,6.3-2.7L127,42.4L127,42.4z"/>
		<polygon class="st1" points="134,44.2 134,38.6 141.2,38.6 141.2,36.4 134,36.4 134,31.4 142.7,31.4 142.7,29.6 131.6,29.6 
			131.6,46.4 143.2,46.4 143.2,44.2 		"/>
		<polygon class="st1" points="148.5,44.2 148.5,38.6 155.7,38.6 155.7,36.4 148.5,36.4 148.5,31.4 157.3,31.4 157.3,29.6 
			146.1,29.6 146.1,46.4 157.7,46.4 157.7,44.2 		"/>
		<path class="st1" d="M122.2,61.4c0.6-0.7,0.9-1.4,1.2-2c0.3-0.7,0.4-1.6,0.4-2.3c0-0.4,0-2-1-3.3c-1.3-1.6-3.2-1.7-3.6-1.7
			c-1,0-2,0.3-3,0.9c-1.6,1.2-2.2,2.7-2.3,3.5l2.2,0.4c0.1-0.4,0.4-1.4,1.4-2c0.1-0.1,0.9-0.6,1.7-0.6c0.1,0,1.3,0.1,2,1
			c0.6,0.7,0.6,1.6,0.6,1.9c0,1-0.4,2-1.2,3c-0.7,1-1.9,2-3.3,3.5c-1,1-2.3,2-3.5,2.9v1.9h9.7v-2h-6.2c0.4-0.4,0.9-0.7,1.4-1.2
			C119.9,64,121.2,62.7,122.2,61.4L122.2,61.4z"/>
		<path class="st1" d="M131.7,51.9c-3,0-5.3,2.4-5.5,5.6v5.6c0,3,2.4,5.6,5.5,5.6c3,0,5.3-2.4,5.5-5.6v-5.6
			C137.2,54.5,134.8,51.9,131.7,51.9z M135.1,63.1c0,1.9-1.4,3.5-3.3,3.5c-1.9,0-3.3-1.6-3.3-3.5v-5.3c0-1.9,1.4-3.5,3.3-3.5
			c1.9,0,3.3,1.6,3.3,3.5V63.1z"/>
		<polygon class="st1" points="139.1,52.4 139.1,54.5 141.4,54.5 141.4,68.3 143.7,68.3 143.7,52.4 		"/>
		<polygon class="st1" points="146.2,52.4 146.2,54.5 153.9,54.5 146.2,68.4 148.7,68.4 157.5,52.6 146.2,52.6 		"/>
	</g>
</g>
</svg>
