<?xml version="1.0" encoding="utf-8"?>
<!-- Generator: Adobe Illustrator 20.1.0, SVG Export Plug-In . SVG Version: 6.00 Build 0)  -->
<svg version="1.1" id="Layer_1" xmlns="http://www.w3.org/2000/svg" xmlns:xlink="http://www.w3.org/1999/xlink" x="0px" y="0px"
	 viewBox="0 0 128 128" style="enable-background:new 0 0 128 128;" xml:space="preserve">
<style type="text/css">
	.st0{fill:#5D3C97;}
	.st1{fill:#06B0C1;}
	.st2{fill:#FFFFFF;}
	.st3{fill:#484F5B;}
	.st4{fill:#F4DA80;}
	.st5{fill:#F5876E;}
</style>
<circle class="st0" cx="64" cy="64" r="63.5"/>
<path class="st1" d="M35.3,81.2h66.3v-1.4c0-1.2-1-2.1-2.1-2.1H35c-7.6,0-13.7,6.1-13.7,13.7l0,0c0,7.6,6.1,13.7,13.7,13.7h64.5
	c1.2,0,2.1-1,2.1-2.1v-1.4H35c-6,0-10.8-5.1-10.2-11.2C25.4,85.2,30,81.2,35.3,81.2z"/>
<path class="st2" d="M35,81.2c-5.7,0-10.3,4.6-10.2,10.2c-0.1,5.6,4.5,10.3,10.2,10.2c22.2,0,44.4,0,66.6,0c-4.8-6-4.8-14.5,0-20.5
	C79.5,81.2,57.3,81.2,35,81.2z"/>
<path class="st3" d="M30.8,53.8h66.3v-1.5c0-1.1-0.9-2-2-2H30.5c-7.6,0-13.7,6.1-13.7,13.7l0,0c0,7.6,6.1,13.7,13.7,13.7H95
	c1.2,0,2.1-1,2.1-2.1v-1.4H30.5c-6,0-10.8-5.1-10.2-11.2C20.8,57.7,25.4,53.8,30.8,53.8z"/>
<path class="st2" d="M30.5,53.8c-5.7,0-10.3,4.6-10.2,10.2c-0.1,5.6,4.5,10.3,10.2,10.2c22.2,0,44.4,0,66.6,0
	c-4.8-6-4.8-14.5,0-20.5C74.9,53.8,52.7,53.8,30.5,53.8z"/>
<path class="st4" d="M35.3,26.3h66.3v-1.4c0-1.2-1-2.1-2.1-2.1H35c-7.6,0-13.7,6.1-13.7,13.7l0,0c0,7.6,6.1,13.7,13.7,13.7h64.2
	c1.4,0,2.5-1.1,2.5-2.5v-1H35c-6,0-10.8-5.1-10.2-11.2C25.4,30.3,30,26.3,35.3,26.3z"/>
<path class="st2" d="M35,26.3c-5.7,0-10.3,4.6-10.2,10.2c-0.1,5.6,4.5,10.3,10.2,10.2c22.2,0,44.4,0,66.6,0c-4.8-6-4.8-14.5,0-20.5
	C79.5,26.3,57.3,26.3,35,26.3z"/>
<path class="st5" d="M36.4,64v20.6c0,0.6,0.7,1,1.2,0.6l6.9-5.6c0.3-0.2,0.7-0.2,1,0l6.9,5.6c0.5,0.4,1.2,0,1.2-0.6V64H36.4z"/>
</svg>
