<?xml version="1.0" encoding="utf-8"?>
<!-- Generator: Adobe Illustrator 20.1.0, SVG Export Plug-In . SVG Version: 6.00 Build 0)  -->
<svg version="1.1" id="Layer_1" xmlns="http://www.w3.org/2000/svg" xmlns:xlink="http://www.w3.org/1999/xlink" x="0px" y="0px"
	 viewBox="0 0 512 512" style="enable-background:new 0 0 512 512;" xml:space="preserve">
<style type="text/css">
	.st0{fill:#5D3C97;}
	.st1{fill:#84DBFF;}
	.st2{fill:#FD8469;}
	.st3{fill:#CED5E0;}
</style>
<circle class="st0" cx="256" cy="256" r="252"/>
<g>
	<g>
		<path class="st1" d="M320.5,169.8h-18.2v-38.2h-92.7v38.2h-18.2v-47.3c0-5,4.1-9.1,9.1-9.1h110.9c5,0,9.1,4.1,9.1,9.1V169.8z"/>
	</g>
	<path class="st2" d="M424.9,398.6H87.2c-2.1,0-3.9-1.7-3.9-3.9V164.9c0-2.1,1.7-3.9,3.9-3.9h337.7c2.1,0,3.9,1.7,3.9,3.9v229.9
		C428.7,396.9,427,398.6,424.9,398.6z"/>
	<g>
		<g>
			<path class="st3" d="M428.7,176.2v26.1c-2,0.3-4,0.5-6.1,0.5c-20,0-36.3-16.2-36.3-36.3c0-1.9,0.2-3.7,0.4-5.5h26.8
				C421.9,161,428.7,167.8,428.7,176.2z"/>
			<path class="st3" d="M125.7,166.5c0,20.1-16.2,36.3-36.3,36.3c-2.1,0-4.1-0.2-6.1-0.5v-26.1c0-8.4,6.8-15.2,15.2-15.2h26.8
				C125.5,162.8,125.7,164.6,125.7,166.5z"/>
		</g>
		<g>
			<path class="st3" d="M428.7,359.5v23.9c0,8.4-6.8,15.2-15.2,15.2h-27.1c-0.1-1.1-0.2-2.2-0.2-3.3c0-20.1,16.3-36.3,36.3-36.3
				C424.7,359,426.7,359.2,428.7,359.5z"/>
			<path class="st3" d="M125.7,395.3c0,1.1-0.1,2.2-0.2,3.3h-27c-8.4,0-15.2-6.8-15.2-15.2v-23.9c2-0.3,4-0.5,6.1-0.5
				C109.4,359,125.7,375.3,125.7,395.3z"/>
		</g>
	</g>
</g>
</svg>
