<?xml version="1.0" encoding="utf-8"?>
<!-- Generator: Adobe Illustrator 20.1.0, SVG Export Plug-In . SVG Version: 6.00 Build 0)  -->
<svg version="1.1" id="Layer_1" xmlns="http://www.w3.org/2000/svg" xmlns:xlink="http://www.w3.org/1999/xlink" x="0px" y="0px"
	 viewBox="0 0 128 128" style="enable-background:new 0 0 128 128;" xml:space="preserve">
<style type="text/css">
	.st0{fill:#5D3C97;}
	.st1{fill:#EFF2F4;}
	.st2{fill:#FFFFFF;}
	.st3{fill:#F4DA80;}
	.st4{fill:#30363D;}
	.st5{fill:#474F5A;}
	.st6{fill:#FF876C;}
</style>
<circle class="st0" cx="64" cy="64" r="63.5"/>
<g>
	
		<rect x="27.1" y="27.1" transform="matrix(0.3576 -0.9339 0.9339 0.3576 -18.6083 100.8192)" class="st1" width="73.7" height="73.7"/>
	<rect x="27.1" y="27.1" class="st2" width="73.7" height="73.7"/>
	<rect x="30.1" y="30.3" class="st3" width="67.8" height="23"/>
	<g>
		<path class="st4" d="M50.9,47.9h-2.8l-5-7.6c-0.3-0.4-0.5-0.8-0.6-1l0,0c0,0.4,0.1,1.1,0.1,2V48H40V35.7h2.9l4.8,7.4
			c0.2,0.3,0.4,0.7,0.6,1l0,0c0-0.3-0.1-0.8-0.1-1.7v-6.7h2.6v12.2H50.9z"/>
		<path class="st4" d="M60.9,47.9h-7.3V35.7h7V38h-4.3v2.7h4v2.2h-4v2.8h4.5L60.9,47.9L60.9,47.9z"/>
		<path class="st4" d="M78.8,35.7l-3.2,12.1h-3l-2-7.8c-0.1-0.4-0.2-0.9-0.2-1.4l0,0c-0.1,0.6-0.1,1-0.2,1.4L68,47.9h-3.2l-3.2-12.1
			h3l1.7,8.1c0.1,0.3,0.1,0.8,0.2,1.4h0.1c0-0.4,0.1-0.9,0.2-1.4l2.2-8.1h2.9l2,8.2c0.1,0.3,0.1,0.7,0.2,1.3l0,0
			c0-0.4,0.1-0.9,0.2-1.4l1.7-8.1h2.8V35.7z"/>
		<path class="st4" d="M79.8,47.4v-2.7c0.5,0.4,1,0.7,1.6,0.9s1.2,0.3,1.7,0.3c0.3,0,0.6,0,0.9-0.1s0.5-0.1,0.6-0.3
			c0.2-0.1,0.3-0.2,0.4-0.4c0.1-0.1,0.1-0.3,0.1-0.5S85,44.2,84.9,44s-0.3-0.4-0.6-0.5c-0.2-0.2-0.5-0.3-0.8-0.5
			c-0.3-0.1-0.7-0.3-1-0.4c-0.9-0.4-1.7-0.9-2.1-1.4c-0.5-0.6-0.7-1.3-0.7-2.1c0-0.6,0.1-1.2,0.4-1.6c0.3-0.5,0.6-0.8,1-1.1
			s0.9-0.5,1.5-0.6s1.2-0.2,1.8-0.2c0.6,0,1.2,0,1.7,0.1s0.9,0.2,1.4,0.4v2.5c-0.2-0.1-0.4-0.3-0.7-0.4c-0.2-0.1-0.5-0.2-0.7-0.3
			c-0.3-0.1-0.5-0.1-0.8-0.2c-0.3,0-0.5-0.1-0.7-0.1c-0.3,0-0.6,0-0.8,0.1c-0.3,0.1-0.5,0.1-0.6,0.2s-0.3,0.2-0.4,0.4
			c-0.1,0.1-0.1,0.3-0.1,0.5s0.1,0.4,0.2,0.5c0.1,0.2,0.3,0.3,0.5,0.5c0.2,0.1,0.4,0.3,0.7,0.4s0.6,0.3,1,0.4
			c0.5,0.2,0.9,0.4,1.3,0.6s0.7,0.5,1,0.8s0.5,0.6,0.6,1c0,0.5,0,1,0,1.5c0,0.7-0.1,1.2-0.4,1.7s-0.6,0.8-1,1.1s-1,0.5-1.5,0.6
			c-0.6,0.1-1.2,0.2-1.8,0.2c-0.7,0-1.3-0.1-1.9-0.2C80.7,47.8,80.2,47.6,79.8,47.4z"/>
	</g>
	<rect x="30.1" y="90.3" class="st5" width="37.4" height="2.4"/>
	<rect x="30.1" y="82.7" class="st5" width="37.4" height="2.4"/>
	<rect x="30.1" y="75.2" class="st5" width="37.4" height="2.4"/>
	<rect x="30.1" y="67.5" class="st5" width="67.8" height="2.4"/>
	<rect x="30.1" y="59.8" class="st5" width="67.8" height="2.4"/>
	<rect x="71.8" y="75.3" class="st6" width="26.1" height="19.7"/>
</g>
</svg>
