<?xml version="1.0" encoding="utf-8"?>
<!-- Generator: Adobe Illustrator 20.1.0, SVG Export Plug-In . SVG Version: 6.00 Build 0)  -->
<svg version="1.1" id="Layer_1" xmlns="http://www.w3.org/2000/svg" xmlns:xlink="http://www.w3.org/1999/xlink" x="0px" y="0px"
	 viewBox="0 0 512 512" style="enable-background:new 0 0 512 512;" xml:space="preserve">
<style type="text/css">
	.st0{fill:#5D3C97;}
	.st1{fill:#FFFFFF;}
	.st2{fill:#84DBFF;}
	.st3{fill:#FF7058;}
	.st4{fill:#2C9984;}
	.st5{fill:#FFD05B;}
</style>
<circle class="st0" cx="256" cy="256" r="252.5"/>
<g>
	<path class="st1" d="M199.1,328.5c-2,0.8-4.4,0.3-5.9-1.3c-8.1-8-30.6-30.3-30.7-30.3c-2-0.1-2.3,0.2-2.3,2.2
		c0,0.1,21.2,21.6,29.8,30.3c2,2.1,2.3,5.4,0.4,7.6c-0.3,0.3-0.6,0.6-0.9,0.9c-0.9,0.8-1.9,1.4-2.9,1.8c-2.1,0.8-4.4,0.2-6-1.3
		c-8.1-8-30.5-30.3-30.6-30.3c-2.1-0.1-2.3,0.2-2.4,2.3c0,0.2,20.9,21.4,29.7,30.3c2.2,2.2,2.2,5.9,0,8.1c-0.1,0.1-0.1,0.1-0.2,0.2
		c-1.9,1.7-4.3,2.5-6.7,2.5s-4.8-0.9-6.6-2.6l-47.9-46.3c-4.7-4.5-9-9.5-12.6-14.9l-11.5-17.1c-0.9-1.4-0.7-3.2,0.4-4.4l36-36
		c0.4-0.4,0.9-0.7,1.5-0.9l24.3-4.2c2-0.6,4.1-0.6,6.1,0c7,2.1,24.7,6.9,34.9,3.4c1.4-0.5,2.8,0.6,2.6,2
		c-0.8,5.9-5.9,17.8-34.5,16.4c-1,0-1.6,1.2-0.9,1.9l53.2,53c3.6,3.5,3.8,9.2,0.2,12.9c0,0,0,0-0.1,0.1c-2.9,3-7.8,2.8-10.8-0.2
		c-9.5-9.4-29.4-29.1-29.5-29.1c-2-0.1-2.3,0.2-2.3,2.2c0,0.1,21.5,21.8,29.9,30.3c1.9,1.9,2.3,4.8,0.8,7c-0.4,0.6-0.9,1.2-1.5,1.7
		C201.2,327.4,200.2,328.1,199.1,328.5z"/>
	<path class="st2" d="M134.4,223.8l-46.5,46.5c-3.2,3.2-8.4,3.2-11.6,0l-67.4-66c6.2-29.7,17.6-57.6,33.3-82.4l92.3,90.3
		C137.6,215.4,137.6,220.6,134.4,223.8z"/>
	<circle class="st1" cx="81.7" cy="251.3" r="7.5"/>
	<path class="st1" d="M313,183.7c2-0.8,4.4-0.3,5.9,1.3c8.1,8,30.6,30.3,30.7,30.3c2,0.1,2.3-0.2,2.3-2.2c0-0.1-21.2-21.6-29.8-30.3
		c-2-2.1-2.3-5.4-0.4-7.6c0.3-0.3,0.6-0.6,0.9-0.9c0.9-0.8,1.9-1.4,2.9-1.8c2.1-0.8,4.4-0.2,6,1.3c8.1,8,30.5,30.3,30.6,30.3
		c2.1,0.1,2.3-0.2,2.4-2.3c0-0.2-20.9-21.4-29.7-30.3c-2.2-2.2-2.2-5.9,0-8.1c0.1-0.1,0.1-0.1,0.2-0.2c1.9-1.7,4.3-2.5,6.7-2.5
		c2.4,0,4.8,0.9,6.6,2.6l47.9,46.3c4.7,4.5,9,9.5,12.6,14.9l11.5,17.1c0.9,1.4,0.7,3.2-0.4,4.4l-36,36c-0.4,0.4-0.9,0.7-1.5,0.9
		l-24.3,4.2c-2,0.6-4.1,0.6-6.1,0c-7-2.1-24.7-6.9-34.9-3.4c-1.4,0.5-2.8-0.6-2.6-2c0.8-5.9,5.9-17.8,34.5-16.4c1,0,1.6-1.2,0.9-1.9
		l-53.2-53c-3.6-3.5-3.7-9.2-0.2-12.9c0,0,0,0,0.1-0.1c2.9-3,7.8-2.8,10.8,0.2c9.5,9.4,29.4,29.1,29.5,29.1c2,0.1,2.3-0.2,2.3-2.2
		c0-0.1-21.5-21.8-29.9-30.3c-1.9-1.9-2.3-4.8-0.8-7c0.4-0.6,0.9-1.2,1.5-1.7C310.9,184.7,311.9,184.1,313,183.7z"/>
	<path class="st3" d="M503.1,308.2c-6.2,29.7-17.7,57.5-33.4,82.4l-92-90.7c-3.2-3.2-3.2-8.4,0-11.6l46.5-46.5
		c3.2-3.2,8.4-3.2,11.6,0L503.1,308.2z"/>
	<circle class="st1" cx="430.4" cy="260.9" r="7.5"/>
	<path class="st1" d="M183.6,199.1c-0.8-2-0.3-4.4,1.3-5.9c8-8.1,30.3-30.6,30.3-30.7c0.1-2-0.2-2.3-2.2-2.3
		c-0.1,0-21.6,21.2-30.3,29.8c-2.1,2-5.4,2.3-7.6,0.4c-0.3-0.3-0.6-0.6-0.9-0.9c-0.8-0.9-1.4-1.9-1.8-2.9c-0.8-2.1-0.2-4.4,1.3-6
		c8-8.1,30.3-30.5,30.3-30.6c0.1-2.1-0.2-2.3-2.3-2.4c-0.2,0-21.4,20.9-30.3,29.7c-2.2,2.2-5.9,2.2-8.1,0c-0.1-0.1-0.1-0.1-0.2-0.2
		c-1.7-1.9-2.5-4.3-2.5-6.7s0.9-4.8,2.6-6.6l46.3-47.9c4.5-4.7,9.5-9,14.9-12.6l17.1-11.5c1.4-0.9,3.2-0.7,4.4,0.4l36,36
		c0.4,0.4,0.7,0.9,0.9,1.5L287,154c0.6,2,0.6,4.1,0,6.1c-2.1,7-6.9,24.7-3.4,34.9c0.5,1.4-0.6,2.8-2,2.6
		c-5.9-0.8-17.8-5.9-16.4-34.5c0-1-1.2-1.7-1.9-0.9l-53,53.2c-3.5,3.6-9.2,3.8-12.9,0.2c0,0,0,0-0.1-0.1c-3-2.9-2.8-7.8,0.2-10.8
		c9.4-9.5,29.1-29.4,29.1-29.5c0.1-2-0.2-2.3-2.2-2.3c-0.1,0-21.8,21.5-30.3,29.9c-1.9,1.9-4.8,2.3-7,0.8c-0.6-0.4-1.2-0.9-1.7-1.5
		C184.7,201.2,184.1,200.2,183.6,199.1z"/>
	<path class="st4" d="M391.8,43.2l-91.9,91.3c-3.2,3.2-8.4,3.2-11.6,0L241.8,88c-3.2-3.2-3.2-8.4,0-11.6l67.6-67.1
		C339.2,15.7,367,27.3,391.8,43.2z"/>
	<circle class="st1" cx="260.8" cy="81.7" r="7.5"/>
	<path class="st1" d="M328.4,313.1c0.8,2,0.3,4.4-1.3,5.9c-8,8.1-30.3,30.6-30.3,30.7c-0.1,2,0.2,2.3,2.2,2.3
		c0.1,0,21.6-21.2,30.3-29.8c2.1-2,5.4-2.3,7.6-0.4c0.3,0.3,0.6,0.6,0.9,0.9c0.8,0.9,1.4,1.9,1.8,2.9c0.8,2.1,0.2,4.4-1.3,6
		c-8,8.1-30.3,30.5-30.3,30.6c-0.1,2.1,0.2,2.3,2.3,2.4c0.2,0,21.4-20.9,30.3-29.7c2.2-2.2,5.9-2.2,8.1,0c0.1,0.1,0.1,0.1,0.2,0.2
		c1.7,1.9,2.5,4.3,2.5,6.7c0,2.4-0.9,4.8-2.6,6.6l-46.3,47.9c-4.5,4.7-9.5,9-14.9,12.6l-17.1,11.5c-1.4,0.9-3.2,0.7-4.4-0.4l-36-36
		c-0.4-0.4-0.7-0.9-0.9-1.5l-4.2-24.3c-0.6-2-0.6-4.1,0-6.1c2.1-7,6.9-24.7,3.4-34.9c-0.5-1.4,0.6-2.8,2-2.6
		c5.9,0.8,17.8,5.9,16.4,34.5c0,1,1.2,1.6,1.9,0.9l53-53.2c3.5-3.6,9.2-3.8,12.9-0.2c0,0,0,0,0.1,0.1c3,2.9,2.8,7.8-0.2,10.8
		c-9.4,9.5-29.1,29.4-29.1,29.5c-0.1,2,0.2,2.3,2.2,2.3c0.1,0,21.8-21.5,30.3-29.9c1.9-1.9,4.8-2.3,7-0.8c0.6,0.4,1.2,0.9,1.7,1.5
		C327.4,310.9,328,312,328.4,313.1z"/>
	<path class="st5" d="M270.2,435.8l-68.3,66.9c-29.8-6.5-57.6-18.2-82.5-34.2l92.7-90.8c3.2-3.2,8.4-3.2,11.6,0l46.5,46.5
		C273.5,427.5,273.5,432.6,270.2,435.8z"/>
	<circle class="st1" cx="251.2" cy="430.4" r="7.5"/>
</g>
</svg>
