<?xml version="1.0" encoding="utf-8"?>
<!-- Generator: Adobe Illustrator 20.1.0, SVG Export Plug-In . SVG Version: 6.00 Build 0)  -->
<svg version="1.1" id="Layer_1" xmlns="http://www.w3.org/2000/svg" xmlns:xlink="http://www.w3.org/1999/xlink" x="0px" y="0px"
	 viewBox="0 0 128 128" style="enable-background:new 0 0 128 128;" xml:space="preserve">
<style type="text/css">
	.st0{fill:#5D3C97;}
	.st1{fill:#F7F76B;}
	.st2{fill:#B96CF4;}
	.st3{fill:#2B3B4E;}
	.st4{fill:#FF7058;}
	.st5{fill:#84DBFF;}
	.st6{fill:#FFFFFF;}
</style>
<circle class="st0" cx="64" cy="64" r="63.5"/>
<path class="st1" d="M116.8,55.1v13.2c0,0.9-0.8,1.7-1.8,1.5c-0.7-0.1-1.2-0.7-1.3-1.4l-1.3-13.5c0-0.4-0.4-0.8-0.9-0.8
	s-0.9,0.4-0.9,0.9v39.8c0,1.1-0.8,2.1-1.9,2.3c-1.2,0.1-2.3-0.7-2.4-1.9l-2.1-20.9c0-0.5-0.5-0.9-1-0.9s-0.9,0.4-0.9,0.9L100.7,95
	c-0.1,1.1-1,2-2.2,2h-0.4c-1.2,0-2.2-1-2.2-2.2V55c0-0.5-0.4-0.9-0.9-0.9c-0.4,0-0.7,0.2-0.8,0.6c0-0.5,0.5-1,1-1s1,0.4,1,1L97.8,71
	c0.1,0.9,0.7,1.6,1.6,1.7c1.2,0.2,2.2-0.7,2.2-1.8V55c0-4.5-1.8-8.6-4.8-11.6c1.8-1.1,3.9-1.7,6.2-1.8
	C110.5,41.4,116.8,47.5,116.8,55.1z"/>
<circle class="st1" cx="103.3" cy="33.3" r="6.3"/>
<path class="st2" d="M32.1,54.7c0-0.2,0.1-0.3,0.1-0.4C32.1,54.4,32.1,54.5,32.1,54.7l0.1,39.7c0,1.1-0.8,2.1-1.9,2.3
	c-1.2,0.1-2.3-0.7-2.4-1.9l-2.1-20.9c0-0.5-0.5-0.9-1-0.9s-0.9,0.4-0.9,0.9l-1.7,20.8c-0.1,1.1-1,2-2.2,2h-0.4c-1.2,0-2.2-1-2.2-2.2
	V54.6c0-0.5-0.4-0.9-0.9-0.9c-0.4,0-0.8,0.3-0.9,0.8L14.3,68c-0.1,0.8-0.7,1.4-1.5,1.4c-0.9,0-1.5-0.7-1.5-1.5V55
	c0-7.4,5.8-13.6,13.1-13.8c2.8-0.1,5.3,0.7,7.5,2c-3.1,3.1-5,7.4-5,12v15.6c0,1,0.8,1.9,1.9,1.9l0,0c1,0,1.8-0.7,1.8-1.7L32.1,54.7z
	"/>
<path class="st3" d="M34.1,54.8v2.9l-0.3-3.1c0-0.4-0.3-0.7-0.7-0.8C33.7,53.8,34.1,54.2,34.1,54.8z"/>
<circle class="st2" cx="24.7" cy="33" r="6.3"/>
<path class="st4" d="M75,53.7c0.2,0,0.4,0.1,0.6,0.2c-0.1,0-0.3-0.1-0.4-0.1c-0.5,0-1,0.4-1,1L73.9,58v-3.2
	C73.9,54.2,74.4,53.7,75,53.7z"/>
<path class="st4" d="M101.5,55v15.9c0,1.1-1,2-2.2,1.8c-0.9-0.1-1.5-0.9-1.6-1.7l-1.5-16.3c0-0.5-0.5-1-1-1c-0.6,0-1.1,0.5-1.1,1.1
	v48c0,1.3-1,2.6-2.3,2.7c-1.5,0.2-2.7-0.9-2.9-2.3L86.4,78c-0.1-0.6-0.5-1-1.1-1s-1.1,0.5-1.1,1.1L82,103.2
	c-0.1,1.3-1.3,2.4-2.6,2.4h-0.5c-1.4,0-2.6-1.2-2.6-2.6V56l1.5,16.3c0.1,0.9,0.8,1.7,1.7,1.9c1.3,0.2,2.3-0.8,2.3-2V55
	c0-5.3-2.3-10-6-13.3c2.5-1.8,5.6-2.9,8.9-3C94,38.4,101.5,45.8,101.5,55z"/>
<circle class="st4" cx="85.2" cy="28.6" r="7.6"/>
<path class="st5" d="M46.5,55.3v16.9c0,1.1,0.9,2,2,2l0,0c1,0,1.9-0.8,2-1.8L52,55.9v46.9c0,1.3-1,2.6-2.3,2.7
	c-1.4,0.2-2.7-0.9-2.9-2.3L44.2,78c-0.1-0.6-0.6-1-1.1-1c-0.6,0-1.1,0.4-1.1,1l-2.1,25.2c-0.1,1.3-1.3,2.4-2.6,2.4h-0.5
	c-1.4,0-2.6-1.2-2.6-2.6V54.8c0-0.6-0.5-1.1-1.1-1.1c-0.5,0-1,0.4-1,1L30.5,71c-0.1,1-0.9,1.7-1.8,1.7l0,0c-1,0-1.9-0.8-1.9-1.9
	V55.3c0-8.9,7-16.4,15.8-16.6c3.7-0.1,7.1,1,9.9,3C48.8,45,46.5,49.9,46.5,55.3z"/>
<path class="st5" d="M33.1,53.8c-0.4,0-0.7,0.2-0.9,0.5C32.3,54,32.6,53.7,33.1,53.8C33,53.7,33,53.7,33.1,53.8z"/>
<path class="st5" d="M54.4,54.8V58l-0.3-3.3c0-0.5-0.5-1-1-1c-0.1,0-0.3,0-0.4,0.1c0.2-0.1,0.4-0.2,0.6-0.2
	C53.9,53.7,54.4,54.2,54.4,54.8z"/>
<circle class="st5" cx="43.1" cy="28.6" r="7.6"/>
<path class="st6" d="M63.7,37.3c-9.6,0.3-17.2,8.4-17.2,18.1v16.9c0,1.1,0.9,2,2,2l0,0c1,0,1.9-0.8,2-1.8l1.7-17.7
	c0.1-0.6,0.5-1,1.1-1s1.1,0.5,1.1,1.1v52.3c0,1.6,1.3,2.8,2.8,2.8h0.6c1.5,0,2.7-1.1,2.8-2.6L62.9,80c0.1-0.6,0.6-1.1,1.2-1.1
	s1.2,0.5,1.2,1.1l2.8,27.5c0.2,1.5,1.6,2.7,3.1,2.5s2.5-1.5,2.5-3V54.8c0-0.6,0.5-1.1,1.1-1.1s1.1,0.4,1.1,1l1.7,17.7
	c0.1,0.9,0.8,1.7,1.7,1.9c1.3,0.2,2.3-0.8,2.3-2V55C81.9,45,73.7,37,63.7,37.3z"/>
<path class="st6" d="M52.7,53.8c-0.3,0.2-0.5,0.5-0.5,0.9L52,55.9v-1.1C52,54.4,52.3,54,52.7,53.8z"/>
<circle class="st6" cx="64.2" cy="26.4" r="8.3"/>
</svg>
