<?xml version="1.0" encoding="utf-8"?>
<!-- Generator: Adobe Illustrator 20.1.0, SVG Export Plug-In . SVG Version: 6.00 Build 0)  -->
<svg version="1.1" id="Layer_1" xmlns="http://www.w3.org/2000/svg" xmlns:xlink="http://www.w3.org/1999/xlink" x="0px" y="0px"
	 viewBox="0 0 128 128" style="enable-background:new 0 0 128 128;" xml:space="preserve">
<style type="text/css">
	.st0{fill:#5D3C97;}
	.st1{fill:#E77961;}
	.st2{fill:#4171B8;}
	.st3{fill:#F5876E;}
	.st4{fill:#F0F2F4;}
	.st5{fill:#484F5B;}
	.st6{fill:#FFFFFF;}
	.st7{fill:#D4DDDD;}
	.st8{fill:#06B0C1;}
</style>
<circle class="st0" cx="64" cy="64" r="63.5"/>
<g>
	<path class="st1" d="M75.1,24.9H65c-0.5,0-1,0.5-1,1v5.9c0,0.6,0.4,1,1,1h10.1c0.5,0,1-0.5,1-1v-5.9C76,25.3,75.6,24.9,75.1,24.9z"
		/>
	<path class="st2" d="M64,23.6c-0.6,0-1.1,0.5-1.1,1.2V42h2.2V24.8C65.1,24.1,64.6,23.6,64,23.6z"/>
	<path class="st3" d="M115.1,55.3l-10.3-10.8c-0.1-0.1-0.3-0.2-0.4-0.2H23.6c-0.2,0-0.3,0.1-0.4,0.2L12.9,55.3
		c-0.4,0.4-0.1,1.1,0.4,1.1h101.5C115.2,56.4,115.5,55.7,115.1,55.3z"/>
	<path class="st4" d="M16.5,56.4v39.5c0,0.5,0.4,1,0.9,1h93.3c0.5,0,0.9-0.4,0.9-1V56.4H16.5z"/>
	<rect x="46.3" y="53.4" class="st5" width="35.7" height="37.3"/>
	<path class="st6" d="M91.4,55.8L64.1,41c-0.1,0-0.2,0-0.2,0L36.6,55.8c-0.2,0.1-0.2,0.5,0.1,0.5h54.5C91.5,56.4,91.6,56,91.4,55.8z
		"/>
	<polygon class="st7" points="81.7,53.4 64,43.9 46.3,53.4 	"/>
	<path class="st7" d="M86.8,92.8H41.2v-2.3c0-1,0.8-1.8,1.8-1.8h42c1,0,1.8,0.8,1.8,1.8V92.8z"/>
	<path class="st6" d="M90.1,96.8H37.9v-2.7c0-0.8,0.6-1.4,1.4-1.4h49.5c0.8,0,1.4,0.6,1.4,1.4v2.7H90.1z"/>
	<rect x="43.8" y="58.3" class="st6" width="4.2" height="28.5"/>
	<rect x="55.9" y="58.3" class="st6" width="4.2" height="28.5"/>
	<rect x="67.9" y="58.3" class="st6" width="4.2" height="28.5"/>
	<g>
		<path class="st6" d="M42.6,57.5c0,0.5,0.3,0.8,0.8,0.8h5c0.4,0,0.8-0.4,0.8-0.8v-1.1h-6.6V57.5z"/>
		<path class="st6" d="M48.4,86.9h-5c-0.4,0-0.8,0.4-0.8,0.8v1.1h6.6v-1.1C49.2,87.3,48.9,86.9,48.4,86.9z"/>
		<path class="st6" d="M54.7,57.5c0,0.5,0.3,0.8,0.8,0.8h5c0.4,0,0.8-0.4,0.8-0.8v-1.1h-6.6V57.5z"/>
		<path class="st6" d="M60.5,86.9h-5c-0.4,0-0.8,0.4-0.8,0.8v1.1h6.6v-1.1C61.3,87.3,60.9,86.9,60.5,86.9z"/>
		<path class="st6" d="M66.7,57.5c0,0.5,0.3,0.8,0.8,0.8h5c0.4,0,0.8-0.4,0.8-0.8v-1.1h-6.6C66.7,56.4,66.7,57.5,66.7,57.5z"/>
		<path class="st6" d="M72.5,86.9h-5c-0.4,0-0.8,0.4-0.8,0.8v1.1h6.6v-1.1C73.3,87.3,73,86.9,72.5,86.9z"/>
		<path class="st6" d="M78.8,56.4v1.1c0,0.5,0.3,0.8,0.8,0.8h5c0.4,0,0.8-0.4,0.8-0.8v-1.1H78.8z"/>
		<path class="st6" d="M84.6,86.9h-5c-0.4,0-0.8,0.4-0.8,0.8v1.1h6.6v-1.1C85.4,87.3,85,86.9,84.6,86.9z"/>
	</g>
	<rect x="80" y="58.3" class="st6" width="4.2" height="28.5"/>
	<ellipse class="st6" cx="64" cy="49" rx="2.4" ry="2.6"/>
	<g>
		<path class="st8" d="M27.7,63.8h-5.2c-0.3,0-0.6,0.3-0.6,0.6v7c0,0.4,0.3,0.6,0.6,0.6h5.2c0.3,0,0.6-0.3,0.6-0.6v-7
			C28.3,64.1,28,63.8,27.7,63.8z"/>
		<path class="st8" d="M38.3,63.8h-5.2c-0.3,0-0.6,0.3-0.6,0.6v7c0,0.4,0.3,0.6,0.6,0.6h5.2c0.3,0,0.6-0.3,0.6-0.6v-7
			C38.9,64.1,38.7,63.8,38.3,63.8z"/>
		<path class="st8" d="M27.7,76.4h-5.2c-0.3,0-0.6,0.3-0.6,0.6v7c0,0.4,0.3,0.6,0.6,0.6h5.2c0.3,0,0.6-0.3,0.6-0.6v-7
			C28.3,76.7,28,76.4,27.7,76.4z"/>
		<path class="st8" d="M38.3,76.4h-5.2c-0.3,0-0.6,0.3-0.6,0.6v7c0,0.4,0.3,0.6,0.6,0.6h5.2c0.3,0,0.6-0.3,0.6-0.6v-7
			C38.9,76.7,38.7,76.4,38.3,76.4z"/>
		<path class="st8" d="M94.9,63.8h-5.2c-0.3,0-0.6,0.3-0.6,0.6v7c0,0.4,0.3,0.6,0.6,0.6h5.2c0.3,0,0.6-0.3,0.6-0.6v-7
			C95.5,64.1,95.2,63.8,94.9,63.8z"/>
		<path class="st8" d="M105.5,63.8h-5.2c-0.3,0-0.6,0.3-0.6,0.6v7c0,0.4,0.3,0.6,0.6,0.6h5.2c0.3,0,0.6-0.3,0.6-0.6v-7
			C106.1,64.1,105.9,63.8,105.5,63.8z"/>
		<path class="st8" d="M94.9,76.4h-5.2c-0.3,0-0.6,0.3-0.6,0.6v7c0,0.4,0.3,0.6,0.6,0.6h5.2c0.3,0,0.6-0.3,0.6-0.6v-7
			C95.5,76.7,95.2,76.4,94.9,76.4z"/>
		<path class="st8" d="M105.5,76.4h-5.2c-0.3,0-0.6,0.3-0.6,0.6v7c0,0.4,0.3,0.6,0.6,0.6h5.2c0.3,0,0.6-0.3,0.6-0.6v-7
			C106.1,76.7,105.9,76.4,105.5,76.4z"/>
	</g>
</g>
</svg>
