<?xml version="1.0" encoding="utf-8"?>
<!-- Generator: Adobe Illustrator 20.1.0, SVG Export Plug-In . SVG Version: 6.00 Build 0)  -->
<svg version="1.1" id="Layer_1" xmlns="http://www.w3.org/2000/svg" xmlns:xlink="http://www.w3.org/1999/xlink" x="0px" y="0px"
	 viewBox="0 0 1275.6 212.6" style="enable-background:new 0 0 1275.6 212.6;" xml:space="preserve">
<style type="text/css">
	.st0{fill:none;}
	.st1{fill:#3A5B99;}
	.st2{font-family:'Tahoma';}
	.st3{font-size:164.0936px;}
	.st4{fill:#FFFFFF;}
</style>
<rect x="16" y="39.6" class="st0" width="1038.9" height="157.1"/>
<text transform="matrix(1 0 0 1 16 164.2822)" class="st1 st2 st3">Znajdź nas na</text>
<g>
	<path class="st1" d="M1249.2,10.6H1083c-5.7,0-10.3,4.6-10.3,10.3v166.1c0,5.7,4.6,10.3,10.3,10.3h166.1c5.7,0,10.3-4.6,10.3-10.3
		V20.9C1259.5,15.3,1254.9,10.6,1249.2,10.6z"/>
</g>
<path class="st4" d="M1225.9,125.1l3.6-28.2h-27.9v-18c0-8.2,2.3-13.7,14-13.7l14.9,0V40c-2.6-0.3-11.4-1.1-21.7-1.1
	c-21.5,0-36.3,13.1-36.3,37.3v20.8h-24.3v28.2h24.3v72.3h29.1v-72.3H1225.9z"/>
</svg>
