<?xml version="1.0" encoding="utf-8"?>
<!-- Generator: Adobe Illustrator 20.1.0, SVG Export Plug-In . SVG Version: 6.00 Build 0)  -->
<svg version="1.1" id="Layer_1" xmlns="http://www.w3.org/2000/svg" xmlns:xlink="http://www.w3.org/1999/xlink" x="0px" y="0px"
	 viewBox="0 0 1077.2 212.6" style="enable-background:new 0 0 1077.2 212.6;" xml:space="preserve">
<style type="text/css">
	.st0{fill:#3A5B99;}
	.st1{fill:#FFFFFF;}
</style>
<g>
	<path class="st0" d="M1042.8,9.3H868.9c-6,0-10.8,4.8-10.8,10.8V194c0,6,4.8,10.8,10.8,10.8h173.9c6,0,10.8-4.8,10.8-10.8V20.1
		C1053.6,14.1,1048.7,9.3,1042.8,9.3z"/>
</g>
<g>
	<path class="st0" d="M23.5,50h76v15.7H40.3v40h49v15.5h-49V173H23.5V50z"/>
	<path class="st0" d="M127.5,63c-7.3,0-10.6-5.5-10.6-11.6c0-6.1,3.3-11.6,10.6-11.6c7.3,0,10.6,5.5,10.6,11.6
		C138.1,57.5,134.8,63,127.5,63z M119.4,173V82.5l16.1-2.6V173H119.4z"/>
	<path class="st0" d="M217.5,173v-56.7c0-15.5-5.9-20.9-18.7-20.9c-9.4,0-18.5,4.9-23.6,9.8V173h-16.1V82.5l16.1-2.6v13.6
		c8.3-8.3,18.9-13.6,29.3-13.6c18.3,0,29.1,11.6,29.1,31.1v62H217.5z"/>
	<path class="st0" d="M320.3,40.4l16.1-2.6V173h-16.1c0,0,0-7.3,0-8.3c-6.5,6.1-14.6,11.2-25.2,11.2c-25.4,0-40.1-20.5-40.1-47.6
		C255,101,273.9,80,300.8,80c6.5,0,13.8,1.2,19.5,2.9V40.4z M300.2,94.5c-18.3,0-28.5,14.9-28.5,33.4c0,19.9,10,33.1,26.8,33.1
		c8.5,0,15.7-3.3,21.8-8.7c0,1,0-51.4,0-51.4C315,96.7,308.1,94.5,300.2,94.5z"/>
	<path class="st0" d="M413.8,82.9v56.7c0,15.6,5.9,20.9,17.7,20.9c10.4,0,19.5-4.9,24.6-9.8V82.9h16.1v90.5l-16.1,2.6
		c0,0,0-12.2,0-13.2c-8.3,8.3-18.9,13.2-30.3,13.2c-17.3,0-28.1-11.6-28.1-31.1v-62H413.8z"/>
	<path class="st0" d="M523.8,176.2c-11,0-23.2-3.3-31.5-8.5l4.1-14.8c7.5,5.1,18.5,8.5,27.8,8.5c10.2,0,17.9-4.7,17.9-12.8
		c0-9.1-10.6-12-21.3-15c-12.8-3.5-26.8-9.8-26.8-26.4c0-16.7,14.2-27.4,32.3-27.4c10.4,0,20.9,2.6,29.1,6.7l-4.1,14.8
		c-7.5-4.1-18.3-6.7-25.8-6.7c-9.6,0-15.9,3.9-15.9,11.2c0,8.7,9.6,11.6,20.9,14.6c13.2,3.5,27.4,9.8,27.4,27
		S543.5,176.2,523.8,176.2z"/>
	<path class="st0" d="M652.1,176c-25.6,0-43.5-18.9-43.5-48c0-28.9,18.5-48.2,44.5-48.2c25.8,0,43.3,19.1,43.3,48.2
		C696.4,156.9,677.5,176,652.1,176z M652.3,94.3c-17.9,0-27.7,14-27.7,33.5c0,19.3,10.4,33.6,28.1,33.6c17.9,0,27.7-13.8,27.7-33.3
		C680.4,108.9,670,94.3,652.3,94.3z"/>
	<path class="st0" d="M772.5,173v-56.7c0-15.5-5.9-20.9-18.7-20.9c-9.4,0-18.5,4.9-23.6,9.8V173H714V82.5l16.1-2.6v13.6
		c8.3-8.3,18.9-13.6,29.3-13.6c18.3,0,29.1,11.6,29.1,31.1v62H772.5z"/>
</g>
<path class="st1" d="M1018.4,129.1l3.8-29.5H993V80.7c0-8.5,2.4-14.4,14.6-14.4l15.6,0V40c-2.7-0.4-12-1.2-22.8-1.2
	c-22.5,0-37.9,13.7-37.9,39v21.8H937v29.5h25.5v75.7H993v-75.7H1018.4z"/>
</svg>
