<?xml version="1.0" encoding="utf-8"?><svg version="1.1" id="Layer_1" xmlns="http://www.w3.org/2000/svg" xmlns:xlink="http://www.w3.org/1999/xlink" x="0px" y="0px" viewBox="0 0 283.46 510.24" enable-background="new 0 0 283.46 510.24" xml:space="preserve"><g opacity="0"><path fill="#FFFFFF" class="st0" d="M179.2,384.3c-6.7,9.5-14.4,18.4-23,26.5l16.7,18.7c10.3-9.6,19.4-20.2,27.3-31.4L179.2,384.3z"><animate id="a0p1" attributeType="CSS" attributeName="opacity" from="1" to=".25" dur="4000ms" fill="freeze" begin="2000ms; a0p2.end"/><animate id="a0p2" attributeType="CSS" attributeName="opacity" from=".25" to="1" dur="400ms" fill="freeze" begin="a0p1.end"/></path><animate id="g0" attributeType="CSS" attributeName="opacity" from="0" to="1" dur="500ms" fill="freeze" begin="2000ms"/></g><g opacity="0"><path fill="#FFFFFF" class="st0" d="M83.6,154.3c7.9,3,15.4,6.6,22.4,10.9l14.9-22.6c-9-5.6-18.7-10.3-28.8-14L83.6,154.3z"><animate id="a1p1" attributeType="CSS" attributeName="opacity" from="1" to=".25" dur="4000ms" fill="freeze" begin="2100ms; a1p2.end"/><animate id="a1p2" attributeType="CSS" attributeName="opacity" from=".25" to="1" dur="400ms" fill="freeze" begin="a1p1.end"/></path><animate id="g1" attributeType="CSS" attributeName="opacity" from="0" to="1" dur="500ms" fill="freeze" begin="2100ms"/></g><g opacity="0"><path fill="#FFFFFF" class="st0" d="M12.9,147.3c7.3-1.2,14.7-1.8,22.2-1.8c0.9,0,1.8,0,2.8,0l1.6-27c-10.8-0.3-21.5,0.5-31.9,2.3L12.9,147.3z"><animate id="a2p1" attributeType="CSS" attributeName="opacity" from="1" to=".25" dur="4000ms" fill="freeze" begin="2200ms; a2p2.end"/><animate id="a2p2" attributeType="CSS" attributeName="opacity" from=".25" to="1" dur="400ms" fill="freeze" begin="a2p1.end"/></path><animate id="g2" attributeType="CSS" attributeName="opacity" from="0" to="1" dur="500ms" fill="freeze" begin="2200ms"/></g><g opacity="0"><path fill="#FFFFFF" class="st0" d="M111.7,207.6l15.2-13.5c-5.2-5.4-10.9-10.3-17-14.7l-11.2,17C103.4,199.8,107.7,203.5,111.7,207.6z"><animate id="a3p1" attributeType="CSS" attributeName="opacity" from="1" to=".25" dur="4000ms" fill="freeze" begin="2300ms; a3p2.end"/><animate id="a3p2" attributeType="CSS" attributeName="opacity" from=".25" to="1" dur="400ms" fill="freeze" begin="a3p1.end"/></path><animate id="g3" attributeType="CSS" attributeName="opacity" from="0" to="1" dur="500ms" fill="freeze" begin="2300ms"/></g><g opacity="0"><path fill="#FFFFFF" class="st0" d="M163.8,331.3c-2.9,7.8-6.6,15.3-10.9,22.5l22.5,14.8c5.6-9,10.3-18.7,14-28.8L163.8,331.3z"><animate id="a4p1" attributeType="CSS" attributeName="opacity" from="1" to=".25" dur="4000ms" fill="freeze" begin="2400ms; a4p2.end"/><animate id="a4p2" attributeType="CSS" attributeName="opacity" from=".25" to="1" dur="400ms" fill="freeze" begin="a4p1.end"/></path><animate id="g4" attributeType="CSS" attributeName="opacity" from="0" to="1" dur="500ms" fill="freeze" begin="2400ms"/></g><g opacity="0"><path fill="#FFFFFF" class="st0" d="M57.5,418.4c-8.2,1.3-16.5,1.9-24.9,1.8l-1.6,27c1.4,0,2.8,0.1,4.3,0.1c9.4,0,18.7-0.8,27.7-2.4L57.5,418.4z"><animate id="a5p1" attributeType="CSS" attributeName="opacity" from="1" to=".25" dur="4000ms" fill="freeze" begin="2500ms; a5p2.end"/><animate id="a5p2" attributeType="CSS" attributeName="opacity" from=".25" to="1" dur="400ms" fill="freeze" begin="a5p1.end"/></path><animate id="g5" attributeType="CSS" attributeName="opacity" from="0" to="1" dur="500ms" fill="freeze" begin="2500ms"/></g><g opacity="0"><path fill="#FFFFFF" class="st0" d="M47,176.1c5.8,0.6,11.4,1.7,16.8,3.2l6.4-19.3c-7.1-2-14.5-3.5-22.1-4.2L47,176.1z"><animate id="a6p1" attributeType="CSS" attributeName="opacity" from="1" to=".25" dur="4000ms" fill="freeze" begin="2600ms; a6p2.end"/><animate id="a6p2" attributeType="CSS" attributeName="opacity" from=".25" to="1" dur="400ms" fill="freeze" begin="a6p1.end"/></path><animate id="g6" attributeType="CSS" attributeName="opacity" from="0" to="1" dur="500ms" fill="freeze" begin="2600ms"/></g><g opacity="0"><path fill="#FFFFFF" class="st0" d="M197.2,255.1l-26.5,5.5c1.3,8.1,1.9,16.4,1.8,24.9l27,1.6C199.8,276.2,199,265.5,197.2,255.1z"><animate id="a7p1" attributeType="CSS" attributeName="opacity" from="1" to=".25" dur="4000ms" fill="freeze" begin="2700ms; a7p2.end"/><animate id="a7p2" attributeType="CSS" attributeName="opacity" from=".25" to="1" dur="400ms" fill="freeze" begin="a7p1.end"/></path><animate id="g7" attributeType="CSS" attributeName="opacity" from="0" to="1" dur="500ms" fill="freeze" begin="2700ms"/></g><g opacity="0"><path fill="#FFFFFF" class="st0" d="M51.5,389.1c-5.6,0.9-11.3,1.3-17.1,1.2l-1.2,20.3c0.7,0,1.4,0,2.1,0c6.9,0,13.7-0.6,20.3-1.7L51.5,389.1z"><animate id="a8p1" attributeType="CSS" attributeName="opacity" from="1" to=".25" dur="4000ms" fill="freeze" begin="2800ms; a8p2.end"/><animate id="a8p2" attributeType="CSS" attributeName="opacity" from=".25" to="1" dur="400ms" fill="freeze" begin="a8p1.end"/></path><animate id="g8" attributeType="CSS" attributeName="opacity" from="0" to="1" dur="500ms" fill="freeze" begin="2800ms"/></g><g opacity="0"><path fill="#FFFFFF" class="st0" d="M210.6,298.7c-1.1,11.8-3.3,23.3-6.5,34.5l23.8,7.9c4-13.2,6.6-26.9,7.8-40.9L210.6,298.7z"><animate id="a9p1" attributeType="CSS" attributeName="opacity" from="1" to=".25" dur="4000ms" fill="freeze" begin="2900ms; a9p2.end"/><animate id="a9p2" attributeType="CSS" attributeName="opacity" from=".25" to="1" dur="400ms" fill="freeze" begin="a9p1.end"/></path><animate id="g9" attributeType="CSS" attributeName="opacity" from="0" to="1" dur="500ms" fill="freeze" begin="2900ms"/></g><g opacity="0"><path fill="#FFFFFF" class="st0" d="M120.5,465.1l-11.2-22.4c-10.6,4.9-21.7,8.8-33.2,11.5l5.1,24.6C94.7,475.6,107.9,471,120.5,465.1z"><animate id="a10p1" attributeType="CSS" attributeName="opacity" from="1" to=".25" dur="4000ms" fill="freeze" begin="3000ms; a10p2.end"/><animate id="a10p2" attributeType="CSS" attributeName="opacity" from=".25" to="1" dur="400ms" fill="freeze" begin="a10p1.end"/></path><animate id="g10" attributeType="CSS" attributeName="opacity" from="0" to="1" dur="500ms" fill="freeze" begin="3000ms"/></g><g opacity="0"><path fill="#FFFFFF" class="st0" d="M257.6,177.4L230,191.3c6.4,13.6,11.4,27.9,14.9,42.8l30.3-6.2C271.2,210.3,265.2,193.4,257.6,177.4z"><animate id="a11p1" attributeType="CSS" attributeName="opacity" from="1" to=".25" dur="4000ms" fill="freeze" begin="3100ms; a11p2.end"/><animate id="a11p2" attributeType="CSS" attributeName="opacity" from=".25" to="1" dur="400ms" fill="freeze" begin="a11p1.end"/></path><animate id="g11" attributeType="CSS" attributeName="opacity" from="0" to="1" dur="500ms" fill="freeze" begin="3100ms"/></g><g opacity="0"><path fill="#FFFFFF" class="st0" d="M48.7,146.2c8.4,0.8,16.6,2.4,24.5,4.7l8.5-25.7c-10.1-3-20.6-5-31.5-6L48.7,146.2z"><animate id="a12p1" attributeType="CSS" attributeName="opacity" from="1" to=".25" dur="4000ms" fill="freeze" begin="3200ms; a12p2.end"/><animate id="a12p2" attributeType="CSS" attributeName="opacity" from=".25" to="1" dur="400ms" fill="freeze" begin="a12p1.end"/></path><animate id="g12" attributeType="CSS" attributeName="opacity" from="0" to="1" dur="500ms" fill="freeze" begin="3200ms"/></g><g opacity="0"><path fill="#FFFFFF" class="st0" d="M102.4,366.7c-4.5,3.6-9.2,6.8-14.2,9.6l9.1,18.2c6.6-3.7,12.8-7.9,18.6-12.6L102.4,366.7z"><animate id="a13p1" attributeType="CSS" attributeName="opacity" from="1" to=".25" dur="4000ms" fill="freeze" begin="3300ms; a13p2.end"/><animate id="a13p2" attributeType="CSS" attributeName="opacity" from=".25" to="1" dur="400ms" fill="freeze" begin="a13p1.end"/></path><animate id="g13" attributeType="CSS" attributeName="opacity" from="0" to="1" dur="500ms" fill="freeze" begin="3300ms"/></g><g opacity="0"><path fill="#FFFFFF" class="st0" d="M148,418c-9.1,7.6-18.8,14.2-29,19.7l11.2,22.4c12.1-6.5,23.7-14.4,34.4-23.4L148,418z"><animate id="a14p1" attributeType="CSS" attributeName="opacity" from="1" to=".25" dur="4000ms" fill="freeze" begin="3400ms; a14p2.end"/><animate id="a14p2" attributeType="CSS" attributeName="opacity" from=".25" to="1" dur="400ms" fill="freeze" begin="a14p1.end"/></path><animate id="g14" attributeType="CSS" attributeName="opacity" from="0" to="1" dur="500ms" fill="freeze" begin="3400ms"/></g><g opacity="0"><path fill="#FFFFFF" class="st0" d="M134.1,187.6l20.2-17.9c-7.3-7.7-15.4-14.8-24.2-21l-14.9,22.6C122,176.2,128.3,181.7,134.1,187.6z"><animate id="a15p1" attributeType="CSS" attributeName="opacity" from="1" to=".25" dur="4000ms" fill="freeze" begin="3500ms; a15p2.end"/><animate id="a15p2" attributeType="CSS" attributeName="opacity" from=".25" to="1" dur="400ms" fill="freeze" begin="a15p1.end"/></path><animate id="g15" attributeType="CSS" attributeName="opacity" from="0" to="1" dur="500ms" fill="freeze" begin="3500ms"/></g><g opacity="0"><path fill="#FFFFFF" class="st0" d="M170.4,170.1c7.6,9.1,14.2,18.8,19.7,29l22.4-11.2c-6.5-12.1-14.4-23.7-23.4-34.4L170.4,170.1z"><animate id="a16p1" attributeType="CSS" attributeName="opacity" from="1" to=".25" dur="4000ms" fill="freeze" begin="3600ms; a16p2.end"/><animate id="a16p2" attributeType="CSS" attributeName="opacity" from=".25" to="1" dur="400ms" fill="freeze" begin="a16p1.end"/></path><animate id="g16" attributeType="CSS" attributeName="opacity" from="0" to="1" dur="500ms" fill="freeze" begin="3600ms"/></g><g opacity="0"><path fill="#FFFFFF" class="st0" d="M119,215.7c3.6,4.5,6.8,9.2,9.6,14.2l18.2-9.1c-3.7-6.6-7.9-12.8-12.6-18.6L119,215.7z"><animate id="a17p1" attributeType="CSS" attributeName="opacity" from="1" to=".25" dur="4000ms" fill="freeze" begin="3700ms; a17p2.end"/><animate id="a17p2" attributeType="CSS" attributeName="opacity" from=".25" to="1" dur="400ms" fill="freeze" begin="a17p1.end"/></path><animate id="g17" attributeType="CSS" attributeName="opacity" from="0" to="1" dur="500ms" fill="freeze" begin="3700ms"/></g><g opacity="0"><path fill="#FFFFFF" class="st0" d="M121.8,346.4c-3.4,4.6-7.1,9-11.2,13l13.5,15.2c5.4-5.2,10.3-10.9,14.7-16.9L121.8,346.4z"><animate id="a18p1" attributeType="CSS" attributeName="opacity" from="1" to=".25" dur="4000ms" fill="freeze" begin="3800ms; a18p2.end"/><animate id="a18p2" attributeType="CSS" attributeName="opacity" from=".25" to="1" dur="400ms" fill="freeze" begin="a18p1.end"/></path><animate id="g18" attributeType="CSS" attributeName="opacity" from="0" to="1" dur="500ms" fill="freeze" begin="3800ms"/></g><g opacity="0"><path fill="#FFFFFF" class="st0" d="M142,294.6c-0.6,5.8-1.7,11.4-3.2,16.8l19.3,6.4c2-7.1,3.5-14.5,4.2-22L142,294.6z"><animate id="a19p1" attributeType="CSS" attributeName="opacity" from="1" to=".25" dur="4000ms" fill="freeze" begin="3900ms; a19p2.end"/><animate id="a19p2" attributeType="CSS" attributeName="opacity" from=".25" to="1" dur="400ms" fill="freeze" begin="a19p1.end"/></path><animate id="g19" attributeType="CSS" attributeName="opacity" from="0" to="1" dur="500ms" fill="freeze" begin="3900ms"/></g><g opacity="0"><path fill="#FFFFFF" class="st0" d="M141.4,195.8c5.3,6.4,10,13.3,14,20.6l24.1-12.1c-5.1-9.4-11.2-18.3-18-26.5L141.4,195.8z"><animate id="a20p1" attributeType="CSS" attributeName="opacity" from="1" to=".25" dur="4000ms" fill="freeze" begin="4000ms; a20p2.end"/><animate id="a20p2" attributeType="CSS" attributeName="opacity" from=".25" to="1" dur="400ms" fill="freeze" begin="a20p1.end"/></path><animate id="g20" attributeType="CSS" attributeName="opacity" from="0" to="1" dur="500ms" fill="freeze" begin="4000ms"/></g><g opacity="0"><path fill="#FFFFFF" class="st0" d="M146.9,362.9c-4.8,6.7-10.3,13-16.4,18.9l17.9,20.2c7.7-7.3,14.8-15.4,21-24.2L146.9,362.9z"><animate id="a21p1" attributeType="CSS" attributeName="opacity" from="1" to=".25" dur="4000ms" fill="freeze" begin="4100ms; a21p2.end"/><animate id="a21p2" attributeType="CSS" attributeName="opacity" from=".25" to="1" dur="400ms" fill="freeze" begin="a21p1.end"/></path><animate id="g21" attributeType="CSS" attributeName="opacity" from="0" to="1" dur="500ms" fill="freeze" begin="4100ms"/></g><g opacity="0"><path fill="#FFFFFF" class="st0" d="M158.1,106.2c12.4,8.7,23.9,18.6,34.2,29.7l23.1-20.5c-12.1-13-25.6-24.8-40.3-35L158.1,106.2z"><animate id="a22p1" attributeType="CSS" attributeName="opacity" from="1" to=".25" dur="4000ms" fill="freeze" begin="4200ms; a22p2.end"/><animate id="a22p2" attributeType="CSS" attributeName="opacity" from=".25" to="1" dur="400ms" fill="freeze" begin="a22p1.end"/></path><animate id="g22" attributeType="CSS" attributeName="opacity" from="0" to="1" dur="500ms" fill="freeze" begin="4200ms"/></g><g opacity="0"><path fill="#FFFFFF" class="st0" d="M135.3,321.9c-2.1,5.4-4.6,10.5-7.5,15.4l17,11.2c3.8-6.4,7.1-13.1,9.8-20.2L135.3,321.9z"><animate id="a23p1" attributeType="CSS" attributeName="opacity" from="1" to=".25" dur="4000ms" fill="freeze" begin="4300ms; a23p2.end"/><animate id="a23p2" attributeType="CSS" attributeName="opacity" from=".25" to="1" dur="400ms" fill="freeze" begin="a23p1.end"/></path><animate id="g23" attributeType="CSS" attributeName="opacity" from="0" to="1" dur="500ms" fill="freeze" begin="4300ms"/></g><g opacity="0"><path fill="#FFFFFF" class="st0" d="M277.4,238.6l-30.3,6.2c2.6,14.6,3.8,29.8,3.3,45.2l30.9,1.8C281.9,273.7,280.6,255.8,277.4,238.6z"><animate id="a24p1" attributeType="CSS" attributeName="opacity" from="1" to=".25" dur="4000ms" fill="freeze" begin="4400ms; a24p2.end"/><animate id="a24p2" attributeType="CSS" attributeName="opacity" from=".25" to="1" dur="400ms" fill="freeze" begin="a24p1.end"/></path><animate id="g24" attributeType="CSS" attributeName="opacity" from="0" to="1" dur="500ms" fill="freeze" begin="4400ms"/></g><g opacity="0"><path fill="#FFFFFF" class="st0" d="M53.3,68.4c15.4,1.3,30.3,4.2,44.5,8.5l9.7-29.4c-16.8-5.2-34.3-8.6-52.4-10L53.3,68.4z"><animate id="a25p1" attributeType="CSS" attributeName="opacity" from="1" to=".25" dur="4000ms" fill="freeze" begin="4500ms; a25p2.end"/><animate id="a25p2" attributeType="CSS" attributeName="opacity" from=".25" to="1" dur="400ms" fill="freeze" begin="a25p1.end"/></path><animate id="g25" attributeType="CSS" attributeName="opacity" from="0" to="1" dur="500ms" fill="freeze" begin="4500ms"/></g><g opacity="0"><path fill="#FFFFFF" class="st0" d="M104,432.2l-12.1-24.1c-7.6,3.5-15.5,6.2-23.6,8.2l5.4,26.4C84.2,440.2,94.3,436.6,104,432.2z"><animate id="a26p1" attributeType="CSS" attributeName="opacity" from="1" to=".25" dur="4000ms" fill="freeze" begin="4600ms; a26p2.end"/><animate id="a26p2" attributeType="CSS" attributeName="opacity" from=".25" to="1" dur="400ms" fill="freeze" begin="a26p1.end"/></path><animate id="g26" attributeType="CSS" attributeName="opacity" from="0" to="1" dur="500ms" fill="freeze" begin="4600ms"/></g><g opacity="0"><path fill="#FFFFFF" class="st0" d="M161.3,262.5l-19.9,4.1c0.9,5.6,1.3,11.3,1.2,17.1l20.3,1.2C163.1,277.3,162.5,269.8,161.3,262.5z"><animate id="a27p1" attributeType="CSS" attributeName="opacity" from="1" to=".25" dur="4000ms" fill="freeze" begin="4700ms; a27p2.end"/><animate id="a27p2" attributeType="CSS" attributeName="opacity" from=".25" to="1" dur="400ms" fill="freeze" begin="a27p1.end"/></path><animate id="g27" attributeType="CSS" attributeName="opacity" from="0" to="1" dur="500ms" fill="freeze" begin="4700ms"/></g><g opacity="0"><path fill="#FFFFFF" class="st0" d="M217.4,197.6L195,208.8c4.9,10.6,8.8,21.7,11.5,33.2l24.5-5.1C227.9,223.4,223.4,210.2,217.4,197.6z"><animate id="a28p1" attributeType="CSS" attributeName="opacity" from="1" to=".25" dur="4000ms" fill="freeze" begin="4800ms; a28p2.end"/><animate id="a28p2" attributeType="CSS" attributeName="opacity" from=".25" to="1" dur="400ms" fill="freeze" begin="a28p1.end"/></path><animate id="g28" attributeType="CSS" attributeName="opacity" from="0" to="1" dur="500ms" fill="freeze" begin="4800ms"/></g><g opacity="0"><path fill="#FFFFFF" class="st0" d="M18.9,176.7c5.6-0.9,11.3-1.3,17.1-1.2l1.2-20.3c-7.6-0.1-15.1,0.4-22.4,1.6L18.9,176.7z"><animate id="a29p1" attributeType="CSS" attributeName="opacity" from="1" to=".25" dur="4000ms" fill="freeze" begin="4900ms; a29p2.end"/><animate id="a29p2" attributeType="CSS" attributeName="opacity" from=".25" to="1" dur="400ms" fill="freeze" begin="a29p1.end"/></path><animate id="g29" attributeType="CSS" attributeName="opacity" from="0" to="1" dur="500ms" fill="freeze" begin="4900ms"/></g><g opacity="0"><path fill="#FFFFFF" class="st0" d="M5.1,109.4c9.8-1.7,19.8-2.6,30-2.6c1.6,0,3.3,0,4.9,0.1l1.5-25c-14.1-0.4-28,0.6-41.5,2.9L5.1,109.4z"><animate id="a30p1" attributeType="CSS" attributeName="opacity" from="1" to=".25" dur="4000ms" fill="freeze" begin="5000ms; a30p2.end"/><animate id="a30p2" attributeType="CSS" attributeName="opacity" from=".25" to="1" dur="400ms" fill="freeze" begin="a30p1.end"/></path><animate id="g30" attributeType="CSS" attributeName="opacity" from="0" to="1" dur="500ms" fill="freeze" begin="5000ms"/></g><g opacity="0"><path fill="#FFFFFF" class="st0" d="M73.3,494.8c-12.3,2.2-25,3.4-37.9,3.4c-2.4,0-4.8-0.1-7.3-0.1l-1.8,30.9c3,0.1,6.1,0.2,9.1,0.2c15,0,29.8-1.4,44.2-4L73.3,494.8z"><animate id="a31p1" attributeType="CSS" attributeName="opacity" from="1" to=".25" dur="4000ms" fill="freeze" begin="5100ms; a31p2.end"/><animate id="a31p2" attributeType="CSS" attributeName="opacity" from=".25" to="1" dur="400ms" fill="freeze" begin="a31p1.end"/></path><animate id="g31" attributeType="CSS" attributeName="opacity" from="0" to="1" dur="500ms" fill="freeze" begin="5100ms"/></g><g opacity="0"><path fill="#FFFFFF" class="st0" d="M65.4,456.4c-11.4,2-23.2,2.8-35,2.5l-1.5,25c2.2,0.1,4.4,0.1,6.6,0.1c11.8,0,23.5-1,34.9-3L65.4,456.4z"><animate id="a32p1" attributeType="CSS" attributeName="opacity" from="1" to=".25" dur="4000ms" fill="freeze" begin="5200ms; a32p2.end"/><animate id="a32p2" attributeType="CSS" attributeName="opacity" from=".25" to="1" dur="400ms" fill="freeze" begin="a32p1.end"/></path><animate id="g32" attributeType="CSS" attributeName="opacity" from="0" to="1" dur="500ms" fill="freeze" begin="5200ms"/></g><g opacity="0"><path fill="#FFFFFF" class="st0" d="M95.9,117.5c11,4,21.6,9.1,31.6,15.3l13.8-20.9c-11.8-7.4-24.4-13.4-37.5-18.2L95.9,117.5z"><animate id="a33p1" attributeType="CSS" attributeName="opacity" from="1" to=".25" dur="4000ms" fill="freeze" begin="5300ms; a33p2.end"/><animate id="a33p2" attributeType="CSS" attributeName="opacity" from=".25" to="1" dur="400ms" fill="freeze" begin="a33p1.end"/></path><animate id="g33" attributeType="CSS" attributeName="opacity" from="0" to="1" dur="500ms" fill="freeze" begin="5300ms"/></g><g opacity="0"><path fill="#FFFFFF" class="st0" d="M122.3,389.1c-6.5,5.3-13.4,10-20.6,14l12.1,24.1c9.4-5.1,18.3-11.2,26.5-18L122.3,389.1z"><animate id="a34p1" attributeType="CSS" attributeName="opacity" from="1" to=".25" dur="4000ms" fill="freeze" begin="5400ms; a34p2.end"/><animate id="a34p2" attributeType="CSS" attributeName="opacity" from=".25" to="1" dur="400ms" fill="freeze" begin="a34p1.end"/></path><animate id="g34" attributeType="CSS" attributeName="opacity" from="0" to="1" dur="500ms" fill="freeze" begin="5400ms"/></g><g opacity="0"><path fill="#FFFFFF" class="st0" d="M87.5,399.4l-9.1-18.2c-5.2,2.3-10.6,4.2-16.2,5.6l4.1,20C73.7,405,80.8,402.5,87.5,399.4z"><animate id="a35p1" attributeType="CSS" attributeName="opacity" from="1" to=".25" dur="4000ms" fill="freeze" begin="5500ms; a35p2.end"/><animate id="a35p2" attributeType="CSS" attributeName="opacity" from=".25" to="1" dur="400ms" fill="freeze" begin="a35p1.end"/></path><animate id="g35" attributeType="CSS" attributeName="opacity" from="0" to="1" dur="500ms" fill="freeze" begin="5500ms"/></g><g opacity="0"><path fill="#FFFFFF" class="st0" d="M233.3,247.7l-24.5,5.1c2,11.4,2.8,23.2,2.5,35l25,1.5C236.7,275.1,235.7,261.2,233.3,247.7z"><animate id="a36p1" attributeType="CSS" attributeName="opacity" from="1" to=".25" dur="4000ms" fill="freeze" begin="5600ms; a36p2.end"/><animate id="a36p2" attributeType="CSS" attributeName="opacity" from=".25" to="1" dur="400ms" fill="freeze" begin="a36p1.end"/></path><animate id="g36" attributeType="CSS" attributeName="opacity" from="0" to="1" dur="500ms" fill="freeze" begin="5600ms"/></g><g opacity="0"><path fill="#FFFFFF" class="st0" d="M184.5,214.1l-24.2,12.1c3.4,7.5,6.2,15.4,8.2,23.6l26.5-5.5C192.5,233.9,188.9,223.8,184.5,214.1z"><animate id="a37p1" attributeType="CSS" attributeName="opacity" from="1" to=".25" dur="4000ms" fill="freeze" begin="5700ms; a37p2.end"/><animate id="a37p2" attributeType="CSS" attributeName="opacity" from=".25" to="1" dur="400ms" fill="freeze" begin="a37p1.end"/></path><animate id="g37" attributeType="CSS" attributeName="opacity" from="0" to="1" dur="500ms" fill="freeze" begin="5700ms"/></g><g opacity="0"><path fill="#FFFFFF" class="st0" d="M74.2,182.8c5.4,2.1,10.5,4.6,15.4,7.5l11.2-17c-6.4-3.8-13.1-7.1-20.2-9.8L74.2,182.8z"><animate id="a38p1" attributeType="CSS" attributeName="opacity" from="1" to=".25" dur="4000ms" fill="freeze" begin="5800ms; a38p2.end"/><animate id="a38p2" attributeType="CSS" attributeName="opacity" from=".25" to="1" dur="400ms" fill="freeze" begin="a38p1.end"/></path><animate id="g38" attributeType="CSS" attributeName="opacity" from="0" to="1" dur="500ms" fill="freeze" begin="5800ms"/></g><g opacity="0"><path fill="#FFFFFF" class="st0" d="M51,107.6c11.8,1.1,23.3,3.3,34.5,6.5l7.9-23.8c-13.2-4-26.9-6.6-40.9-7.8L51,107.6z"><animate id="a39p1" attributeType="CSS" attributeName="opacity" from="1" to=".25" dur="4000ms" fill="freeze" begin="5900ms; a39p2.end"/><animate id="a39p2" attributeType="CSS" attributeName="opacity" from=".25" to="1" dur="400ms" fill="freeze" begin="a39p1.end"/></path><animate id="g39" attributeType="CSS" attributeName="opacity" from="0" to="1" dur="500ms" fill="freeze" begin="5900ms"/></g><g opacity="0"><path fill="#FFFFFF" class="st0" d="M171.9,296.4c-0.8,8.4-2.4,16.6-4.7,24.5l25.7,8.5c3-10.1,5-20.6,6-31.5L171.9,296.4z"><animate id="a40p1" attributeType="CSS" attributeName="opacity" from="1" to=".25" dur="4000ms" fill="freeze" begin="6000ms; a40p2.end"/><animate id="a40p2" attributeType="CSS" attributeName="opacity" from=".25" to="1" dur="400ms" fill="freeze" begin="a40p1.end"/></path><animate id="g40" attributeType="CSS" attributeName="opacity" from="0" to="1" dur="500ms" fill="freeze" begin="6000ms"/></g><g opacity="0"><path fill="#FFFFFF" class="st0" d="M151.7,230.6l-18.2,9.1c2.3,5.2,4.2,10.6,5.6,16.2l20-4.1C157.3,244.4,154.8,237.4,151.7,230.6z"><animate id="a41p1" attributeType="CSS" attributeName="opacity" from="1" to=".25" dur="4000ms" fill="freeze" begin="6100ms; a41p2.end"/><animate id="a41p2" attributeType="CSS" attributeName="opacity" from=".25" to="1" dur="400ms" fill="freeze" begin="a41p1.end"/></path><animate id="g41" attributeType="CSS" attributeName="opacity" from="0" to="1" dur="500ms" fill="freeze" begin="6100ms"/></g><g opacity="0"><path fill="#FFFFFF" class="st0" d="M211.9,405.8c-8.7,12.4-18.6,23.9-29.7,34.2l20.5,23.1c13-12.1,24.8-25.6,35-40.3L211.9,405.8z"><animate id="a42p1" attributeType="CSS" attributeName="opacity" from="1" to=".25" dur="4000ms" fill="freeze" begin="6200ms; a42p2.end"/><animate id="a42p2" attributeType="CSS" attributeName="opacity" from=".25" to="1" dur="400ms" fill="freeze" begin="a42p1.end"/></path><animate id="g42" attributeType="CSS" attributeName="opacity" from="0" to="1" dur="500ms" fill="freeze" begin="6200ms"/></g><g opacity="0"><path fill="#ec1c24" class="st1" d="M261.2,76.9c-9-9.9-18.7-19.2-29-27.8c-10.2-8.6-21.1-16.6-32.3-23.8L216,0c12.3,7.9,24.3,16.7,35.5,26.1s21.9,19.7,31.8,30.5L261.2,76.9z"><animate id="a43p1" attributeType="CSS" attributeName="opacity" from="1" to=".25" dur="4000ms" fill="freeze" begin="6300ms; a43p2.end"/><animate id="a43p2" attributeType="CSS" attributeName="opacity" from=".25" to="1" dur="400ms" fill="freeze" begin="a43p1.end"/></path><animate id="g43" attributeType="CSS" attributeName="opacity" from="0" to="1" dur="500ms" fill="freeze" begin="6300ms"/></g></svg>