<?xml version="1.0" encoding="utf-8"?>
<!-- Generator: Adobe Illustrator 20.1.0, SVG Export Plug-In . SVG Version: 6.00 Build 0)  -->
<svg version="1.1" xmlns="http://www.w3.org/2000/svg" xmlns:xlink="http://www.w3.org/1999/xlink" x="0px" y="0px"
	 viewBox="0 0 213.165 95.528" enable-background="new 0 0 213.165 95.528" xml:space="preserve">
<g id="Layer_2" display="none">
	<rect y="0.653" display="inline" fill="#8D51A0" width="226.77" height="170.08"/>
</g>
<g id="Layer_1">
	<g>
		<path fill="#FFFFFF" d="M9.96,18.794H4.379v6.139H0.906V1.679H9.96c4.527,0.031,8.186,3.845,8.186,8.558
			S14.487,18.763,9.96,18.794z M14.704,10.236c0-3.132-2.14-5.705-4.806-5.705H4.379v11.41h5.519
			C12.564,15.941,14.704,13.368,14.704,10.236z"/>
		<path fill="#FFFFFF" d="M38.171,22.081v2.853H22.11V1.679h15.472v2.853h-12.03v6.883h9.829v2.883h-9.829v7.783H38.171z"/>
		<path fill="#FFFFFF" d="M53.949,17.554l4.992,7.379h-3.814l-4.558-6.759h-5.426v6.759h-3.442v-6.759v-2.853V4.531V1.679h3.442
			h5.581c4.558,0.031,8.216,3.565,8.216,8.248C58.941,13.461,56.895,16.314,53.949,17.554z M45.144,15.321h5.55
			c2.636,0,4.806-2.232,4.806-5.395c0-3.131-2.17-5.395-4.806-5.395h-5.55V15.321z"/>
		<path fill="#FFFFFF" d="M78.471,21.243c-1.116,2.636-4.248,4.279-8.155,4.31c-3.379,0-6.449-1.488-8.62-3.845l2.294-2.294
			c0.124,0.217,0.279,0.403,0.465,0.589c1.55,1.736,3.658,2.698,5.86,2.698c2.698-0.031,4.279-1.023,4.93-2.574
			c0.496-1.147,0.093-2.387,0.062-2.418c-0.651-1.799-2.449-2.512-4.992-3.287c-2.883-0.868-6.201-1.891-7.287-4.93
			c-0.589-1.581-0.434-3.411,0.372-4.899C65.2,1.183,69.789,1.09,70.316,1.09c3.411,0,6.449,1.488,8.62,3.875l-2.264,2.263
			c-0.155-0.217-0.31-0.403-0.496-0.589c-1.581-1.736-3.658-2.697-5.86-2.697c-0.031,0-2.759,0-3.814,1.984
			c-0.403,0.775-0.496,1.798-0.217,2.604c0.62,1.705,2.388,2.418,4.868,3.162c2.945,0.899,6.263,1.892,7.441,5.023
			C78.688,16.934,79.432,19.042,78.471,21.243z"/>
		<path fill="#FFFFFF" d="M105.317,13.306c0,6.76-5.302,12.248-11.813,12.248c-6.511,0-11.813-5.488-11.813-12.248
			c0-6.759,5.302-12.216,11.813-12.216C100.016,1.09,105.317,6.547,105.317,13.306z M87.644,6.64
			c-1.612,1.768-2.511,4.155-2.511,6.666c0,2.543,0.899,4.899,2.511,6.697c1.582,1.736,3.659,2.698,5.86,2.698
			c2.202,0,4.31-0.961,5.86-2.698c1.612-1.798,2.512-4.154,2.512-6.697c0-2.511-0.899-4.898-2.512-6.666
			c-1.55-1.736-3.659-2.697-5.86-2.697C91.303,3.942,89.226,4.903,87.644,6.64z"/>
		<path fill="#FFFFFF" d="M129.714,24.933h-4.155l-12.464-18.51v18.51h-3.473V1.679h4.155l12.496,18.511V1.679h3.441V24.933z"/>
		<path fill="#FFFFFF" d="M153.831,24.933h-3.721l-2.325-6.077h-9.146l-2.295,6.077h-3.721l9.55-23.254h2.108L153.831,24.933z
			 M146.699,16.003l-3.473-9.178l-3.503,9.178H146.699z"/>
		<path fill="#FFFFFF" d="M171.717,22.081v2.853h-15.162V1.679h3.442v20.402H171.717z"/>
	</g>
	<g>
		<path fill="#FFFFFF" d="M9.65,59.932H0.596V36.678H9.65c6.17,0.031,11.162,5.24,11.162,11.627
			C20.812,54.723,15.82,59.902,9.65,59.932z M15.045,54.568c1.488-1.675,2.325-3.876,2.325-6.264c0-2.356-0.837-4.589-2.325-6.232
			c-1.457-1.643-3.411-2.542-5.457-2.542h-5.55V57.08h5.55C11.634,57.08,13.588,56.212,15.045,54.568z"/>
		<path fill="#FFFFFF" d="M41.271,57.08v2.853H25.21V36.678h15.472v2.853h-12.03v6.883h9.829v2.883h-9.829v7.783H41.271z"/>
		<path fill="#FFFFFF" d="M71.56,36.678v23.254h-3.441V42.476l-8.961,17.457h-1.953l-8.961-17.457v17.457h-3.441V36.678h0.465h3.69
			l9.208,17.983l9.209-17.983h3.689H71.56z"/>
		<path fill="#FFFFFF" d="M99.18,48.305c0,6.76-5.302,12.248-11.813,12.248c-6.511,0-11.813-5.488-11.813-12.248
			c0-6.759,5.302-12.216,11.813-12.216C93.878,36.089,99.18,41.546,99.18,48.305z M81.506,41.639
			c-1.612,1.768-2.511,4.155-2.511,6.666c0,2.543,0.899,4.899,2.511,6.697c1.582,1.736,3.659,2.698,5.86,2.698
			c2.202,0,4.31-0.961,5.86-2.698c1.612-1.798,2.512-4.154,2.512-6.697c0-2.511-0.899-4.898-2.512-6.666
			c-1.55-1.736-3.659-2.697-5.86-2.697C85.165,38.941,83.088,39.902,81.506,41.639z"/>
		<path fill="#FFFFFF" d="M122.49,56.708c-2.139,2.356-5.209,3.845-8.588,3.845c-6.542,0-11.813-5.488-11.813-12.248
			c0-6.728,5.271-12.216,11.813-12.216c3.379,0,6.449,1.488,8.619,3.875l-2.264,2.263c-0.154-0.217-0.31-0.403-0.496-0.589
			c-1.581-1.736-3.658-2.697-5.859-2.697c-2.202,0-4.31,0.961-5.86,2.697c-1.612,1.768-2.512,4.155-2.512,6.666
			c0,2.543,0.899,4.899,2.512,6.697c1.55,1.736,3.659,2.698,5.86,2.698c2.201,0,4.278-0.961,5.859-2.698
			c0.155-0.186,0.311-0.372,0.466-0.558L122.49,56.708z"/>
		<path fill="#FFFFFF" d="M138.454,52.553l4.991,7.379h-3.813l-4.558-6.759h-5.426v6.759h-3.441v-6.759V50.32V39.53v-2.853h3.441
			h5.581c4.558,0.031,8.216,3.565,8.216,8.248C143.445,48.46,141.399,51.313,138.454,52.553z M129.648,50.32h5.55
			c2.636,0,4.806-2.232,4.806-5.395c0-3.131-2.17-5.395-4.806-5.395h-5.55V50.32z"/>
		<path fill="#FFFFFF" d="M167.1,59.932h-3.721l-2.326-6.077h-9.146l-2.295,6.077h-3.721l9.551-23.254h2.107L167.1,59.932z
			 M159.968,51.003l-3.473-9.178l-3.504,9.178H159.968z"/>
		<path fill="#FFFFFF" d="M188.271,56.708c-2.139,2.356-5.209,3.845-8.588,3.845c-6.543,0-11.813-5.488-11.813-12.248
			c0-6.728,5.271-12.216,11.813-12.216c3.379,0,6.449,1.488,8.619,3.875l-2.264,2.263c-0.154-0.217-0.31-0.403-0.496-0.589
			c-1.581-1.736-3.658-2.697-5.859-2.697s-4.311,0.961-5.86,2.697c-1.612,1.768-2.512,4.155-2.512,6.666
			c0,2.543,0.899,4.899,2.512,6.697c1.55,1.736,3.659,2.698,5.86,2.698s4.278-0.961,5.859-2.698
			c0.155-0.186,0.311-0.372,0.466-0.558L188.271,56.708z"/>
		<path fill="#FFFFFF" d="M212.266,36.678l-9.58,14.015v9.24h-3.442v-9.24l-9.581-14.015h4.187l7.101,10.852l7.131-10.852H212.266z"
			/>
	</g>
	<g>
		<path fill="#FFFFFF" d="M4.348,74.53v7.255h9.829v2.853H4.348v10.294H0.906V71.677h15.441v2.853H4.348z"/>
		<path fill="#FFFFFF" d="M41.613,83.304c0,6.76-5.302,12.247-11.813,12.247c-6.512,0-11.813-5.487-11.813-12.247
			c0-6.759,5.302-12.216,11.813-12.216C36.311,71.088,41.613,76.545,41.613,83.304z M23.939,76.638
			c-1.612,1.768-2.512,4.154-2.512,6.666c0,2.543,0.899,4.899,2.512,6.697c1.581,1.736,3.659,2.697,5.86,2.697
			c2.201,0,4.31-0.961,5.86-2.697c1.612-1.798,2.511-4.154,2.511-6.697c0-2.512-0.899-4.898-2.511-6.666
			c-1.55-1.736-3.659-2.697-5.86-2.697C27.598,73.941,25.521,74.902,23.939,76.638z"/>
		<path fill="#FFFFFF" d="M57.823,87.552l4.992,7.379h-3.813l-4.558-6.759h-5.426v6.759h-3.441v-6.759V85.32V74.53v-2.853h3.441
			h5.581c4.558,0.031,8.217,3.565,8.217,8.247C62.815,83.46,60.769,86.312,57.823,87.552z M49.018,85.32h5.55
			c2.635,0,4.806-2.232,4.806-5.396c0-3.131-2.171-5.395-4.806-5.395h-5.55V85.32z"/>
		<path fill="#FFFFFF" d="M85.477,71.677v14.139c0,3.752-1.488,9.735-9.302,9.735s-9.364-5.983-9.364-9.735V71.677h3.442v14.139
			c0,1.396,0.31,6.883,5.922,6.883s5.86-5.487,5.86-6.883V71.677H85.477z"/>
		<path fill="#FFFFFF" d="M117.036,71.677v23.254h-3.441V77.475l-8.961,17.456h-1.953L93.72,77.475v17.456h-3.441V71.677h0.465h3.69
			l9.208,17.983l9.209-17.983h3.689H117.036z"/>
	</g>
	<g>
		<path fill="#FFFFFF" d="M136.338,83.562c-1.367,1.505-3.328,2.456-5.486,2.456c-4.18,0-7.547-3.506-7.547-7.823
			c0-4.298,3.367-7.804,7.547-7.804c2.158,0,4.119,0.95,5.506,2.476l-1.445,1.446c-0.1-0.139-0.199-0.258-0.317-0.377
			c-1.011-1.108-2.337-1.723-3.743-1.723s-2.754,0.614-3.744,1.723c-1.029,1.129-1.604,2.654-1.604,4.259
			c0,1.624,0.574,3.129,1.604,4.278c0.99,1.108,2.338,1.723,3.744,1.723s2.732-0.614,3.743-1.723
			c0.099-0.119,0.198-0.238,0.297-0.357L136.338,83.562z"/>
		<path fill="#FFFFFF" d="M149.592,83.799v1.822h-10.26V70.767h9.883v1.822h-7.685v4.397h6.278v1.842h-6.278v4.971H149.592z"/>
		<path fill="#FFFFFF" d="M162.627,83.799v1.822h-10.26V70.767h9.883v1.822h-7.685v4.397h6.278v1.842h-6.278v4.971H162.627z"/>
		<path fill="#FFFFFF" d="M173.781,82.67c-0.416,0.396-0.832,0.772-1.287,1.129h5.764v1.822h-9.072v-1.822
			c1.09-0.752,2.238-1.723,3.189-2.634c1.326-1.248,2.337-2.198,3.07-3.169c0.752-1.03,1.108-1.941,1.108-2.853
			c0-0.316,0-1.129-0.534-1.802c-0.654-0.832-1.724-0.911-1.842-0.911c-0.832-0.04-1.427,0.356-1.605,0.495
			c-0.91,0.614-1.207,1.564-1.307,1.941l-2-0.437c0.139-0.634,0.613-2.198,2.158-3.228c0.892-0.595,1.842-0.872,2.832-0.832
			c0.357,0.02,2.159,0.158,3.387,1.684c0.971,1.228,0.971,2.634,0.971,3.089c0,0.733-0.139,1.466-0.416,2.179
			c-0.257,0.614-0.613,1.248-1.109,1.901C176.178,80.433,174.91,81.621,173.781,82.67z"/>
		<path fill="#FFFFFF" d="M190.995,75.6v5.209h-0.021c-0.039,2.892-2.297,5.209-5.09,5.209s-5.051-2.317-5.09-5.209V75.6
			c0.039-2.872,2.297-5.209,5.09-5.209s5.051,2.337,5.09,5.209H190.995z M188.936,75.679c0-1.782-1.367-3.229-3.051-3.229
			s-3.05,1.446-3.05,3.229v5.051c0,1.782,1.366,3.248,3.05,3.248s3.051-1.466,3.051-3.248V75.679z"/>
		<path fill="#FFFFFF" d="M197.396,70.767v14.854h-2.198V72.589h-2.219v-1.822H197.396z"/>
		<path fill="#FFFFFF" d="M211.043,70.767l-8.279,14.854h-2.416l7.309-13.032h-7.309v-1.822H211.043z"/>
	</g>
</g>
</svg>
