<?xml version="1.0" encoding="utf-8"?>
<!-- Generator: Adobe Illustrator 21.0.0, SVG Export Plug-In . SVG Version: 6.00 Build 0)  -->
<svg version="1.1" id="Layer_1" xmlns="http://www.w3.org/2000/svg" xmlns:xlink="http://www.w3.org/1999/xlink" x="0px" y="0px"
	 viewBox="0 0 213.2 95.5" style="enable-background:new 0 0 213.2 95.5;" xml:space="preserve">
<style type="text/css">
	.st0{display:none;}
	.st1{display:inline;fill:#8D51A0;}
	.st2{display:inline;}
	.st3{fill:#FFFFFF;}
</style>
<g id="Layer_2" class="st0">
	<rect y="0.7" class="st1" width="226.8" height="170.1"/>
</g>
<g id="Layer_1_1_" class="st0">
	<g class="st2">
		<path class="st3" d="M10,18.8H4.4v6.1H0.9V1.7H10c4.5,0,8.2,3.8,8.2,8.6S14.5,18.8,10,18.8z M14.7,10.2c0-3.1-2.1-5.7-4.8-5.7H4.4
			v11.4h5.5C12.6,15.9,14.7,13.4,14.7,10.2z"/>
		<path class="st3" d="M38.2,22.1v2.9H22.1V1.7h15.5v2.9h-12v6.9h9.8v2.9h-9.8v7.8C25.6,22.1,38.2,22.1,38.2,22.1z"/>
		<path class="st3" d="M53.9,17.6l5,7.4h-3.8l-4.6-6.8h-5.4v6.8h-3.4v-6.8v-2.9V4.5V1.7h3.4h5.6c4.6,0,8.2,3.6,8.2,8.2
			C58.9,13.5,56.9,16.3,53.9,17.6z M45.1,15.3h5.5c2.6,0,4.8-2.2,4.8-5.4c0-3.1-2.2-5.4-4.8-5.4h-5.5V15.3z"/>
		<path class="st3" d="M78.5,21.2c-1.1,2.6-4.2,4.3-8.2,4.3c-3.4,0-6.4-1.5-8.6-3.8l2.3-2.3c0.1,0.2,0.3,0.4,0.5,0.6
			c1.6,1.7,3.7,2.7,5.9,2.7c2.7,0,4.3-1,4.9-2.6c0.5-1.1,0.1-2.4,0.1-2.4c-0.7-1.8-2.4-2.5-5-3.3c-2.9-0.9-6.2-1.9-7.3-4.9
			c-0.6-1.6-0.4-3.4,0.4-4.9c1.8-3.4,6.4-3.5,6.9-3.5c3.4,0,6.4,1.5,8.6,3.9l-2.3,2.3c-0.2-0.2-0.3-0.4-0.5-0.6
			c-1.6-1.7-3.7-2.7-5.9-2.7c0,0-2.8,0-3.8,2c-0.4,0.8-0.5,1.8-0.2,2.6c0.6,1.7,2.4,2.4,4.9,3.2c2.9,0.9,6.3,1.9,7.4,5
			C78.7,16.9,79.4,19,78.5,21.2z"/>
		<path class="st3" d="M105.3,13.3c0,6.8-5.3,12.2-11.8,12.2s-11.8-5.5-11.8-12.2c0-6.8,5.3-12.2,11.8-12.2
			C100,1.1,105.3,6.5,105.3,13.3z M87.6,6.6c-1.6,1.8-2.5,4.2-2.5,6.7c0,2.5,0.9,4.9,2.5,6.7c1.6,1.7,3.7,2.7,5.9,2.7
			c2.2,0,4.3-1,5.9-2.7c1.6-1.8,2.5-4.2,2.5-6.7c0-2.5-0.9-4.9-2.5-6.7c-1.6-1.7-3.7-2.7-5.9-2.7C91.3,3.9,89.2,4.9,87.6,6.6z"/>
		<path class="st3" d="M129.7,24.9h-4.2L113.1,6.4v18.5h-3.5V1.7h4.2l12.5,18.5V1.7h3.4V24.9z"/>
		<path class="st3" d="M153.8,24.9h-3.7l-2.3-6.1h-9.1l-2.3,6.1h-3.7l9.6-23.3h2.1L153.8,24.9z M146.7,16l-3.5-9.2l-3.5,9.2H146.7z"
			/>
		<path class="st3" d="M171.7,22.1v2.9h-15.2V1.7h3.4v20.4C160,22.1,171.7,22.1,171.7,22.1z"/>
	</g>
	<g class="st2">
		<path class="st3" d="M9.6,59.9H0.6V36.7h9.1c6.2,0,11.2,5.2,11.2,11.6C20.8,54.7,15.8,59.9,9.6,59.9z M15,54.6
			c1.5-1.7,2.3-3.9,2.3-6.3c0-2.4-0.8-4.6-2.3-6.2c-1.5-1.6-3.4-2.5-5.5-2.5H4v17.5h5.6C11.6,57.1,13.6,56.2,15,54.6z"/>
		<path class="st3" d="M41.3,57.1v2.9H25.2V36.7h15.5v2.9h-12v6.9h9.8v2.9h-9.8v7.8H41.3z"/>
		<path class="st3" d="M71.6,36.7v23.3h-3.4V42.5l-9,17.5h-2l-9-17.5v17.5h-3.4V36.7h0.5H49l9.2,18l9.2-18h3.7H71.6z"/>
		<path class="st3" d="M99.2,48.3c0,6.8-5.3,12.2-11.8,12.2c-6.5,0-11.8-5.5-11.8-12.2c0-6.8,5.3-12.2,11.8-12.2
			C93.9,36.1,99.2,41.5,99.2,48.3z M81.5,41.6c-1.6,1.8-2.5,4.2-2.5,6.7c0,2.5,0.9,4.9,2.5,6.7c1.6,1.7,3.7,2.7,5.9,2.7
			c2.2,0,4.3-1,5.9-2.7c1.6-1.8,2.5-4.2,2.5-6.7c0-2.5-0.9-4.9-2.5-6.7c-1.6-1.7-3.7-2.7-5.9-2.7C85.2,38.9,83.1,39.9,81.5,41.6z"/>
		<path class="st3" d="M122.5,56.7c-2.1,2.4-5.2,3.8-8.6,3.8c-6.5,0-11.8-5.5-11.8-12.2c0-6.7,5.3-12.2,11.8-12.2
			c3.4,0,6.4,1.5,8.6,3.9l-2.3,2.3c-0.2-0.2-0.3-0.4-0.5-0.6c-1.6-1.7-3.7-2.7-5.9-2.7c-2.2,0-4.3,1-5.9,2.7
			c-1.6,1.8-2.5,4.2-2.5,6.7c0,2.5,0.9,4.9,2.5,6.7c1.6,1.7,3.7,2.7,5.9,2.7c2.2,0,4.3-1,5.9-2.7c0.2-0.2,0.3-0.4,0.5-0.6
			L122.5,56.7z"/>
		<path class="st3" d="M138.5,52.6l5,7.4h-3.8l-4.6-6.8h-5.4v6.8h-3.4v-6.8v-2.9V39.5v-2.9h3.4h5.6c4.6,0,8.2,3.6,8.2,8.2
			C143.4,48.5,141.4,51.3,138.5,52.6z M129.6,50.3h5.6c2.6,0,4.8-2.2,4.8-5.4c0-3.1-2.2-5.4-4.8-5.4h-5.6V50.3z"/>
		<path class="st3" d="M167.1,59.9h-3.7l-2.3-6.1h-9.1l-2.3,6.1h-3.7l9.6-23.3h2.1L167.1,59.9z M160,51l-3.5-9.2L153,51H160z"/>
		<path class="st3" d="M188.3,56.7c-2.1,2.4-5.2,3.8-8.6,3.8c-6.5,0-11.8-5.5-11.8-12.2c0-6.7,5.3-12.2,11.8-12.2
			c3.4,0,6.4,1.5,8.6,3.9l-2.3,2.3c-0.2-0.2-0.3-0.4-0.5-0.6c-1.6-1.7-3.7-2.7-5.9-2.7s-4.3,1-5.9,2.7c-1.6,1.8-2.5,4.2-2.5,6.7
			c0,2.5,0.9,4.9,2.5,6.7c1.6,1.7,3.7,2.7,5.9,2.7s4.3-1,5.9-2.7c0.2-0.2,0.3-0.4,0.5-0.6L188.3,56.7z"/>
		<path class="st3" d="M212.3,36.7l-9.6,14v9.2h-3.4v-9.2l-9.6-14h4.2l7.1,10.9l7.1-10.9H212.3z"/>
	</g>
	<g class="st2">
		<path class="st3" d="M4.3,74.5v7.3h9.8v2.9H4.3v10.3H0.9V71.7h15.4v2.9H4.3z"/>
		<path class="st3" d="M41.6,83.3c0,6.8-5.3,12.2-11.8,12.2c-6.5,0-11.8-5.5-11.8-12.2c0-6.8,5.3-12.2,11.8-12.2
			S41.6,76.5,41.6,83.3z M23.9,76.6c-1.6,1.8-2.5,4.2-2.5,6.7c0,2.5,0.9,4.9,2.5,6.7c1.6,1.7,3.7,2.7,5.9,2.7s4.3-1,5.9-2.7
			c1.6-1.8,2.5-4.2,2.5-6.7c0-2.5-0.9-4.9-2.5-6.7c-1.5-1.7-3.7-2.7-5.9-2.7S25.5,74.9,23.9,76.6z"/>
		<path class="st3" d="M57.8,87.6l5,7.4H59l-4.6-6.8H49v6.8h-3.4v-6.8v-2.9V74.5v-2.9H49h5.6c4.6,0,8.2,3.6,8.2,8.2
			C62.8,83.5,60.8,86.3,57.8,87.6z M49,85.3h5.5c2.6,0,4.8-2.2,4.8-5.4c0-3.1-2.2-5.4-4.8-5.4H49V85.3z"/>
		<path class="st3" d="M85.5,71.7v14.1c0,3.8-1.5,9.7-9.3,9.7s-9.4-6-9.4-9.7V71.7h3.4v14.1c0,1.4,0.3,6.9,5.9,6.9s5.9-5.5,5.9-6.9
			V71.7H85.5z"/>
		<path class="st3" d="M117,71.7v23.3h-3.4V77.5l-9,17.5h-2l-9-17.5v17.5h-3.4V71.7h0.5h3.7l9.2,18l9.2-18h3.7H117z"/>
	</g>
	<g class="st2">
		<path class="st3" d="M136.3,83.6c-1.4,1.5-3.3,2.5-5.5,2.5c-4.2,0-7.5-3.5-7.5-7.8c0-4.3,3.4-7.8,7.5-7.8c2.2,0,4.1,0.9,5.5,2.5
			l-1.4,1.4c-0.1-0.1-0.2-0.3-0.3-0.4c-1-1.1-2.3-1.7-3.7-1.7s-2.8,0.6-3.7,1.7c-1,1.1-1.6,2.7-1.6,4.3c0,1.6,0.6,3.1,1.6,4.3
			c1,1.1,2.3,1.7,3.7,1.7s2.7-0.6,3.7-1.7c0.1-0.1,0.2-0.2,0.3-0.4L136.3,83.6z"/>
		<path class="st3" d="M149.6,83.8v1.8h-10.3V70.8h9.9v1.8h-7.7V77h6.3v1.8h-6.3v5H149.6z"/>
		<path class="st3" d="M162.6,83.8v1.8h-10.3V70.8h9.9v1.8h-7.7V77h6.3v1.8h-6.3v5H162.6z"/>
		<path class="st3" d="M173.8,82.7c-0.4,0.4-0.8,0.8-1.3,1.1h5.8v1.8h-9.1v-1.8c1.1-0.8,2.2-1.7,3.2-2.6c1.3-1.2,2.3-2.2,3.1-3.2
			c0.8-1,1.1-1.9,1.1-2.9c0-0.3,0-1.1-0.5-1.8c-0.7-0.8-1.7-0.9-1.8-0.9c-0.8,0-1.4,0.4-1.6,0.5c-0.9,0.6-1.2,1.6-1.3,1.9l-2-0.4
			c0.1-0.6,0.6-2.2,2.2-3.2c0.9-0.6,1.8-0.9,2.8-0.8c0.4,0,2.2,0.2,3.4,1.7c1,1.2,1,2.6,1,3.1c0,0.7-0.1,1.5-0.4,2.2
			c-0.3,0.6-0.6,1.2-1.1,1.9C176.2,80.4,174.9,81.6,173.8,82.7z"/>
		<path class="st3" d="M191,75.6v5.2h0c0,2.9-2.3,5.2-5.1,5.2s-5.1-2.3-5.1-5.2v-5.2c0-2.9,2.3-5.2,5.1-5.2S190.9,72.7,191,75.6
			L191,75.6z M188.9,75.7c0-1.8-1.4-3.2-3.1-3.2s-3.1,1.4-3.1,3.2v5.1c0,1.8,1.4,3.2,3.1,3.2s3.1-1.5,3.1-3.2V75.7z"/>
		<path class="st3" d="M197.4,70.8v14.9h-2.2v-13H193v-1.8H197.4z"/>
		<path class="st3" d="M211,70.8l-8.3,14.9h-2.4l7.3-13h-7.3v-1.8C200.3,70.8,211,70.8,211,70.8z"/>
	</g>
</g>
<g>
	<path class="st3" d="M54.4,48c0-2.2-1.7-4-3.9-4.1h-4.3v11h1.6v-2.9h2.6C52.7,52.1,54.4,50.3,54.4,48L54.4,48z M50.5,50.7h-2.6
		v-5.4h2.6c1.3,0,2.3,1.2,2.3,2.7C52.8,49.5,51.8,50.7,50.5,50.7L50.5,50.7z M65.9,49.5c0-3-2.4-5.5-5.3-5.5h-4.3v11h4.3
		C63.5,55,65.9,52.5,65.9,49.5L65.9,49.5z M60.6,53.6h-2.6v-8.3h2.6c1,0,1.9,0.4,2.6,1.2c0.7,0.8,1.1,1.8,1.1,3c0,1.1-0.4,2.2-1.1,3
		C62.5,53.2,61.5,53.6,60.6,53.6L60.6,53.6z M75.4,45.3V44H68v11h1.6v-4.9h4.7v-1.4h-4.7v-3.4H75.4L75.4,45.3z M90.4,52.4
		c-0.1,0.1-0.1,0.2-0.2,0.3c-0.7,0.8-1.7,1.3-2.8,1.3c-1,0-2-0.5-2.8-1.3c-0.8-0.9-1.2-2-1.2-3.2c0-1.2,0.4-2.3,1.2-3.2
		c0.7-0.8,1.7-1.3,2.8-1.3c1,0,2,0.5,2.8,1.3c0.1,0.1,0.2,0.2,0.2,0.3l1.1-1.1c-1-1.1-2.5-1.8-4.1-1.8c-3.1,0-5.6,2.6-5.6,5.8
		c0,3.2,2.5,5.8,5.6,5.8c1.6,0,3.1-0.7,4.1-1.8L90.4,52.4L90.4,52.4z M95,53.6v-3.7h4.7v-1.4H95v-3.3h5.7V44h-7.3v11h7.6v-1.4H95
		L95,53.6z M104.5,53.6v-3.7h4.7v-1.4h-4.7v-3.3h5.7V44h-7.3v11h7.6v-1.4H104.5L104.5,53.6z M123.2,50.2c0.4-0.5,0.6-1,0.8-1.4
		c0.2-0.5,0.3-1.1,0.3-1.6c0-0.3,0-1.4-0.7-2.3c-0.9-1.1-2.2-1.2-2.5-1.2c-0.7,0-1.4,0.2-2.1,0.6c-1.1,0.8-1.5,1.9-1.6,2.4l1.5,0.3
		c0.1-0.3,0.3-1,1-1.4c0.1-0.1,0.6-0.4,1.2-0.4c0.1,0,0.9,0.1,1.4,0.7c0.4,0.5,0.4,1.1,0.4,1.3c0,0.7-0.3,1.4-0.8,2.1
		c-0.5,0.7-1.3,1.4-2.3,2.4c-0.7,0.7-1.6,1.4-2.4,2V55h6.7v-1.4h-4.3c0.3-0.3,0.6-0.5,1-0.8C121.6,52,122.5,51.1,123.2,50.2
		L123.2,50.2z M133.6,47.5c0-2.1-1.7-3.9-3.8-3.9s-3.7,1.7-3.8,3.9v3.9c0,2.1,1.7,3.9,3.8,3.9s3.7-1.7,3.8-3.9h0L133.6,47.5
		L133.6,47.5L133.6,47.5z M132.1,51.4c0,1.3-1,2.4-2.3,2.4s-2.3-1.1-2.3-2.4v-3.7c0-1.3,1-2.4,2.3-2.4s2.3,1.1,2.3,2.4V51.4
		L132.1,51.4z M134.9,44v1.4h1.6V55h1.6V44H134.9L134.9,44z M139.8,44v1.4h5.4l-5.4,9.7h1.8l6.1-11H139.8L139.8,44z"/>
	<path class="st3" d="M156.5,61.4c-0.7,0.6-1.5,1.1-2.3,1.6l1.5,3c1.1-0.6,2.1-1.3,3-2.1L156.5,61.4L156.5,61.4z M165.1,55.1
		c-0.4,1.2-1,2.3-1.6,3.3l-2.8-1.8c0.5-0.8,0.9-1.6,1.2-2.5L165.1,55.1L165.1,55.1z M142.9,30.3c0.9-0.1,1.8-0.2,2.8-0.2l0.2-3.3
		c-1.2,0-2.5,0.1-3.7,0.3L142.9,30.3L142.9,30.3z M150.6,68l-0.7-3.3c0.9-0.2,1.8-0.5,2.6-0.9l1.5,3C153,67.2,151.8,67.6,150.6,68
		L150.6,68z M166.2,44.3l-3.3,0.7c0.1,0.9,0.2,1.8,0.2,2.8l3.3,0.2C166.4,46.8,166.4,45.5,166.2,44.3L166.2,44.3z M166.3,49.8
		c-0.1,1.2-0.4,2.4-0.7,3.6l-3.2-1c0.2-0.9,0.4-1.8,0.5-2.8L166.3,49.8L166.3,49.8z M159.7,58.1c-0.6,0.8-1.2,1.5-1.8,2.1l2.2,2.5
		c0.9-0.9,1.7-1.8,2.4-2.8L159.7,58.1L159.7,58.1z M155.9,33.5l1.8-2.8c1,0.7,1.9,1.5,2.8,2.4l-2.5,2.2
		C157.4,34.7,156.7,34.1,155.9,33.5L155.9,33.5z M159.2,36.7c0.6,0.7,1.1,1.5,1.6,2.3l3-1.5c-0.6-1.1-1.3-2.1-2.1-3L159.2,36.7
		L159.2,36.7z M153,28.1c1.2,0.4,2.3,1,3.3,1.6l-1.8,2.8c-0.8-0.5-1.6-0.9-2.5-1.2L153,28.1L153,28.1z M147.4,30.2
		c0.9,0.1,1.9,0.3,2.8,0.5l1-3.2c-1.2-0.3-2.4-0.6-3.6-0.7L147.4,30.2L147.4,30.2z M165.8,42.6l-3.3,0.7c-0.2-0.9-0.5-1.8-0.9-2.6
		l3-1.5C165.1,40.2,165.5,41.4,165.8,42.6L165.8,42.6z M148.2,65c-0.9,0.1-1.8,0.2-2.8,0.2l-0.2,3.3c0.1,0,0.2,0,0.3,0
		c1.1,0,2.2-0.1,3.3-0.3L148.2,65L148.2,65z M162.7,68.3c-1.3,1.1-2.8,2.1-4.3,2.9l-2-3.9c1.2-0.7,2.3-1.4,3.4-2.3L162.7,68.3
		L162.7,68.3z M156.8,72.1l-2-3.9c-1.2,0.6-2.5,1-3.9,1.3l0.9,4.3C153.5,73.4,155.2,72.8,156.8,72.1L156.8,72.1z M170.8,57
		c-0.6,1.7-1.4,3.2-2.3,4.7l-3.7-2.4c0.7-1.2,1.3-2.4,1.8-3.7L170.8,57L170.8,57z M172,43.1l-4.3,0.9c0.2,1.3,0.3,2.7,0.3,4.1
		l4.4,0.3C172.5,46.6,172.3,44.8,172,43.1L172,43.1z M172.3,50.1c-0.2,1.8-0.5,3.5-1,5.1l-4.2-1.4c0.4-1.3,0.6-2.6,0.8-4L172.3,50.1
		L172.3,50.1z M147.7,25.3c1.4,0.1,2.7,0.4,4,0.8l1.4-4.2c-1.7-0.5-3.4-0.8-5.1-1L147.7,25.3L147.7,25.3z M167.5,63.2
		c-1,1.4-2.2,2.8-3.4,4l-2.9-3.3c1-1,1.9-2,2.7-3.1L167.5,63.2L167.5,63.2z M161.7,32.1l3.3-2.9c-1.2-1.3-2.5-2.4-4-3.4l-2.4,3.7
		C159.7,30.2,160.8,31.1,161.7,32.1L161.7,32.1z M154.8,22.4c1.7,0.6,3.2,1.4,4.7,2.3l-2.4,3.7c-1.2-0.7-2.4-1.3-3.7-1.8L154.8,22.4
		L154.8,22.4z M170,36.4l-4,2c0.6,1.2,1,2.5,1.3,3.9l4.3-0.9C171.3,39.6,170.7,38,170,36.4L170,36.4z M141,21.1
		c1.7-0.3,3.5-0.4,5.2-0.4l-0.3,4.4c-0.1,0-0.3,0-0.5,0c-1.2,0-2.4,0.1-3.6,0.3L141,21.1L141,21.1z M162.9,33.4
		c0.9,1.1,1.6,2.2,2.3,3.4l4-2c-0.8-1.5-1.8-3-2.9-4.3L162.9,33.4L162.9,33.4z M150.1,74.2c-1.5,0.3-3,0.4-4.5,0.4
		c-0.2,0-0.5,0-0.7,0l0.3-4.4c1.4,0,2.7-0.1,4.1-0.3L150.1,74.2L150.1,74.2z M169.1,64.3c-1.1,1.6-2.4,3-3.8,4.3l2.7,3.1
		c1.7-1.6,3.2-3.3,4.5-5.1L169.1,64.3L169.1,64.3z M170.7,26.5c1.5,1.8,2.8,3.6,3.8,5.6l-3.7,1.8c-0.9-1.7-2-3.3-3.2-4.7L170.7,26.5
		L170.7,26.5z M174.2,50.3c-0.2,1.9-0.5,3.8-1.1,5.6l3.9,1.3c0.6-2.2,1.1-4.4,1.3-6.7L174.2,50.3L174.2,50.3z M178.4,48.7l-4.1-0.2
		c0.1-1.9-0.1-3.9-0.4-5.7l4-0.8C178.3,44.1,178.5,46.4,178.4,48.7L178.4,48.7z M140.6,19.3c1.6-0.3,3.2-0.4,4.9-0.4
		c0.3,0,0.5,0,0.8,0l0.2-4.1c-2.3-0.1-4.6,0.1-6.8,0.5L140.6,19.3L140.6,19.3z M151.3,80.1c-1.9,0.3-3.8,0.5-5.7,0.5
		c-0.4,0-0.7,0-1.1,0l0.2-4.1c1.9,0.1,3.9-0.1,5.7-0.4L151.3,80.1L151.3,80.1z M155.4,20.6c1.8,0.7,3.5,1.5,5.2,2.5l2.3-3.4
		c-1.9-1.2-4-2.2-6.1-3L155.4,20.6L155.4,20.6z M177.6,40.1l-4,0.8c-0.4-1.9-1.1-3.7-1.9-5.4l3.7-1.8
		C176.3,35.8,177.1,37.9,177.6,40.1L177.6,40.1z M164,69.8c-1.5,1.2-3.1,2.3-4.7,3.2l1.8,3.7c2-1.1,3.9-2.4,5.6-3.8L164,69.8
		L164,69.8z M153,79.7l-0.8-4c1.9-0.4,3.7-1.1,5.4-1.9l1.8,3.7C157.4,78.5,155.3,79.2,153,79.7L153,79.7z M148.1,19
		c1.9,0.2,3.8,0.5,5.6,1.1l1.3-3.9c-2.2-0.6-4.4-1.1-6.7-1.3L148.1,19L148.1,19z M178.7,70.6c-1.7,2.4-3.6,4.6-5.7,6.6l-3.4-3.8
		c1.8-1.7,3.4-3.6,4.9-5.6L178.7,70.6L178.7,70.6z M181.9,30.4l-4.5,2.3c1.1,2.2,1.9,4.6,2.4,7l5-1C184.1,35.8,183.2,33,181.9,30.4
		L181.9,30.4z M168.4,14.5c2.4,1.7,4.6,3.6,6.6,5.7l-3.8,3.4c-1.7-1.8-3.6-3.4-5.6-4.9L168.4,14.5L168.4,14.5z M185.2,40.4l-5,1
		c0.4,2.4,0.6,4.9,0.5,7.4l5.1,0.3C185.9,46.2,185.7,43.2,185.2,40.4L185.2,40.4z M152.8,87.3c-2.4,0.4-4.8,0.7-7.2,0.7
		c-0.5,0-1,0-1.5,0l0.3-5.1c0.4,0,0.8,0,1.2,0c2.1,0,4.2-0.2,6.2-0.6L152.8,87.3L152.8,87.3z M148.5,12.6c2.5,0.2,5,0.7,7.3,1.4
		l1.6-4.8c-2.7-0.8-5.6-1.4-8.6-1.6L148.5,12.6L148.5,12.6z M171.6,78.4c-2.2,1.9-4.6,3.5-7.2,4.9l-2.3-4.5c2.2-1.2,4.2-2.6,6.1-4.2
		L171.6,78.4L171.6,78.4z"/>
</g>
</svg>
